<?xml version="1.0" encoding="UTF-8" standalone="no"?>
<svg
   xmlns:dc="http://purl.org/dc/elements/1.1/"
   xmlns:cc="http://creativecommons.org/ns#"
   xmlns:rdf="http://www.w3.org/1999/02/22-rdf-syntax-ns#"
   xmlns:svg="http://www.w3.org/2000/svg"
   xmlns="http://www.w3.org/2000/svg"
   xmlns:sodipodi="http://sodipodi.sourceforge.net/DTD/sodipodi-0.dtd"
   xmlns:inkscape="http://www.inkscape.org/namespaces/inkscape"
   inkscape:version="1.0 (4035a4fb49, 2020-05-01)"
   sodipodi:docname="logo1.svg"
   id="svg188"
   viewBox="0 0 267.69 119.77"
   version="1.1"
   height="119.77mm"
   width="267.69mm">
  <metadata
     id="metadata194">
    <rdf:RDF>
      <cc:Work
         rdf:about="">
        <dc:format>image/svg+xml</dc:format>
        <dc:type
           rdf:resource="http://purl.org/dc/dcmitype/StillImage" />
      </cc:Work>
    </rdf:RDF>
  </metadata>
  <defs
     id="defs192" />
  <sodipodi:namedview
     inkscape:current-layer="g186"
     inkscape:window-maximized="1"
     inkscape:window-y="0"
     inkscape:window-x="0"
     inkscape:cy="226.337"
     inkscape:cx="505.87087"
     inkscape:zoom="1.2384583"
     showgrid="false"
     id="namedview190"
     inkscape:window-height="1043"
     inkscape:window-width="1920"
     inkscape:pageshadow="2"
     inkscape:pageopacity="0"
     guidetolerance="10"
     gridtolerance="10"
     objecttolerance="10"
     borderopacity="1"
     bordercolor="#666666"
     pagecolor="#ffffff" />
  <g
     id="g72"
     fill="#fff"
     transform="translate(-49.311 -92.262)">
    <g
       id="g16"
       stroke-width=".26458">
      <circle
         id="circle2"
         r="5.1179"
         cy="135.12"
         cx="79.385" />
      <circle
         id="circle4"
         r="1.5053"
         cy="144.37"
         cx="151.03" />
      <circle
         id="circle6"
         r="9.4331"
         cy="143.06"
         cx="123.23" />
      <circle
         id="circle8"
         r="1.9067"
         cy="138.75"
         cx="71.952" />
      <circle
         id="circle10"
         r="1.8063"
         cy="115.61"
         cx="112.22" />
      <circle
         id="circle12"
         r="2.9102"
         cy="117.15"
         cx="145.16" />
      <circle
         id="circle14"
         r="3.9137"
         cy="139.75"
         cx="109.68" />
    </g>
    <circle
       id="circle18"
       stroke-width="1.2508"
       r="2.8463"
       cy="106.56"
       cx="124.21" />
    <g
       id="g36"
       stroke-width=".26458">
      <circle
         id="circle20"
         r="3.412"
         cy="123.2"
         cx="126.47" />
      <circle
         id="circle22"
         r="2.2077"
         cy="179.26"
         cx="115.12" />
      <circle
         id="circle24"
         r="6.0211"
         cy="154.5"
         cx="112.59" />
      <circle
         id="circle26"
         r="4.1144"
         cy="104.27"
         cx="116.43" />
      <circle
         id="circle28"
         r="2.1074"
         cy="175.27"
         cx="122.09" />
      <circle
         id="circle30"
         r="2.1074"
         cy="124.14"
         cx="150.09" />
      <circle
         id="circle32"
         r="2.4084"
         cy="127.34"
         cx="65.84" />
      <circle
         id="circle34"
         r="2.3081"
         cy="143.57"
         cx="68.912" />
    </g>
    <ellipse
       id="ellipse38"
       stroke-width=".61103"
       ry="4.9172"
       rx="4.8169"
       cy="171.1"
       cx="115.24" />
    <g
       id="g56"
       stroke-width=".26458">
      <circle
         id="circle40"
         r="4.1144"
         cy="137.13"
         cx="64.918" />
      <circle
         id="circle42"
         r="5.419"
         cy="97.681"
         cx="131.54" />
      <circle
         id="circle44"
         r="1.9067"
         cy="121.49"
         cx="120.04" />
      <circle
         id="circle46"
         r="1.9067"
         cy="120.76"
         cx="139.7" />
      <circle
         id="circle48"
         r="1.0035"
         cy="169.35"
         cx="105.57" />
      <circle
         id="circle50"
         r="3.2113"
         cy="151.9"
         cx="133.47" />
      <circle
         id="circle52"
         r="3.8134"
         cy="174.89"
         cx="104.81" />
      <circle
         id="circle54"
         r="6.9243"
         cy="135.53"
         cx="143.4" />
    </g>
    <g
       id="g70"
       stroke-width=".26458">
      <circle
         id="circle58"
         r="4.1044"
         cy="185.26"
         cx="121.88" />
      <circle
         id="circle60"
         r="3.405"
         cy="117"
         cx="157.02" />
      <circle
         id="circle62"
         r="3.8307"
         cy="130.86"
         cx="53.142" />
      <circle
         id="circle64"
         r="5.4268"
         cy="119.65"
         cx="104.99" />
      <circle
         id="circle66"
         r="1.0641"
         cy="135.05"
         cx="114.92" />
      <circle
         id="circle68"
         r="1.5961"
         cy="168.68"
         cx="122.81" />
    </g>
  </g>
  <g
     id="g186"
     transform="translate(-49.311 -92.262)">
    <g
       id="g74"
       fill="#520" />
    <g
       id="g96"
       fill="#28170b"
       transform="translate(13.838 2.6363)">
      <g
         id="g92"
         stroke-width=".11388">
        <path
           id="path76"
           d="m78.829 209.28c-0.56373-0.0539-2.3574-0.25664-3.986-0.45056-1.6345-0.19461-3.8612-0.38057-4.9705-0.41508l-2.0095-0.0625 0.48802-0.66293c1.3807-1.8756 1.9873-5.1678 1.8339-9.9533-0.08221-2.565-0.22714-4.3998-0.80059-10.136-0.54255-5.4268-0.6764-7.8275-0.52634-9.44 0.15683-1.6852 0.29608-2.1022 1.0882-3.2582 2.3296-3.3998 2.6404-6.6448 0.98702-10.307-0.25453-0.56373-0.944-1.9731-1.5322-3.1318-1.6486-3.2481-2.0363-4.4178-2.3023-6.9465-0.34364-3.2669-1.7051-5.8538-5.1458-9.7772l-0.93349-1.0644 0.43692-0.41605c0.63758-0.60713 0.73056-1.0769 0.64583-3.2632-0.10801-2.7867-0.17168-5.399-0.12074-4.954 0.24344 2.1271 0.30514 3.0334 0.32803 4.8193 0.02201 1.7164 0.06906 2.2267 0.27493 2.9818 0.36191 1.3275 1.0085 2.5333 2.2901 4.2707 0.62378 0.8456 1.348 1.9218 1.6093 2.3916 0.26134 0.46977 0.7476 1.3154 1.0806 1.8791 0.85435 1.4465 0.98773 1.8134 0.98336 2.7048-0.0024 0.50753 0.0409 0.76858 0.12771 0.7683 0.07231-2.3e-4 0.30297-0.3321 0.51258-0.73747 0.56805-1.0986 1.469-1.8682 3.6024-3.0772 2.0979-1.189 2.745-1.7402 4.134-3.5218 0.5409-0.69378 1.2741-1.5945 1.6293-2.0017 1.0907-1.2501 1.217-1.6434 1.3539-4.2137 0.05504-1.0335 0.16596-2.0841 0.24649-2.3346 0.09132-0.28414 0.39388-0.7003 0.80411-1.106 0.48111-0.47583 0.69039-0.78161 0.77945-1.1388 0.06697-0.26861 0.15166-1.7311 0.1882-3.2501l0.06645-2.7617h0.61098l0.12182 2.5532c0.067 1.4043 0.15724 2.6105 0.20054 2.6806 0.04949 0.0801 0.34101-0.11743 0.78488-0.53175 1.3213-1.2333 2.6958-2.3105 2.9483-2.3105 0.04946 0-0.18358 0.2735-0.51786 0.60779-0.63695 0.63694-1.522 1.8935-1.6312 2.316-0.0414 0.16017-0.33388 0.3893-0.82905 0.64951-0.68184 0.3583-0.79496 0.46768-1.0396 1.0053-0.151 0.33177-0.4415 0.74686-0.64556 0.92242-0.62355 0.53644-0.6836 1.1771-0.27427 2.9265 0.06595 0.28186 0.12116 0.70163 0.12269 0.93282 0.0016 0.23119 0.04933 0.44912 0.10622 0.48427 0.05689 0.0352 0.45406-0.13789 0.88261-0.38456 2.2816-1.3133 4.3308-1.7259 6.5873-1.3265 2.2066 0.39058 6.234 1.5574 6.0412 1.7502-0.10364 0.10363-1.8589-0.35389-2.6083-0.67988-0.42945-0.18682-1.1061-0.3903-1.5036-0.45218-1.0125-0.15764-4.8596 0.0397-5.4244 0.27821-0.51988 0.21955-1.353 0.97523-1.9211 1.7426-0.33099 0.44705-0.69916 0.73721-1.6086 1.2677-1.2977 0.75697-2.9018 1.9182-4.4776 3.2415-1.1412 0.95832-5.6335 5.2392-5.7885 5.5161-0.05445 0.0973-0.09992 1.0821-0.10105 2.1885-4e-3 3.9255 0.42738 5.2928 3.5567 11.273 0.24052 0.45965 0.25365 0.59195 0.1977 1.993-0.07742 1.939-0.39141 3.2806-1.062 4.5375-1.177 2.206-1.3303 2.5813-1.3888 3.3985-0.0667 0.93217 0.06994 1.537 0.62768 2.7787 0.22772 0.50695 0.42626 0.93938 0.4412 0.96096 0.01495 0.0216 0.43419-0.12318 0.93166-0.3217 1.0639-0.42454 1.1962-0.55226 3.011-2.9063 0.98766-1.2811 1.536-1.8791 2.193-2.3916 2.9495-2.3005 6.4782-4.1654 10.991-5.8084 1.8053-0.65732 4.1933-1.3677 4.286-1.2751 0.10606 0.10606-1.9083 1.1345-4.7416 2.4209-3.3629 1.5268-4.1712 1.9314-5.499 2.7528-2.4884 1.5393-3.7174 2.877-5.4687 5.9527-0.16049 0.28186-0.89147 1.2556-1.6244 2.1638-2.5144 3.1158-3.2374 4.2194-3.7683 5.7512-0.30228 0.87232-0.31565 1.0031-0.31416 3.0749 0.0011 1.5876 0.05639 2.4658 0.2075 3.2981 0.5348 2.9453 1.6216 5.7926 3.2186 8.4321 1.5641 2.585 3.9718 5.1329 6.0092 6.3591l0.67586 0.40674-0.30725 0.11682c-0.89206 0.33916-3.1572 0.43205-5.3721 0.2203z" />
        <path
           id="path78"
           d="m99.067 149.62c-0.9929-0.35277-2.3791-1.1456-3.3071-1.8914-0.97848-0.78644-3.0476-2.8585-2.951-2.9552 0.16147-0.16147 3.9187 2.3646 5.9648 4.0103 1.4455 1.1626 1.4787 1.2575 0.29331 0.83631z" />
        <path
           id="path80"
           d="m114.42 131.44c-1.6937-0.25545-3.0502-0.92408-4.2028-2.0717-0.76454-0.76116-0.87612-0.83345-1.1958-0.77466-0.19391 0.0357-0.89491 0.1661-1.5578 0.28985-1.5168 0.28319-3.4992 0.51042-7.0514 0.80827-2.8164 0.23615-5.6255 0.53045-6.1498 0.6443-0.15659 0.034 0.25339-0.24239 0.91108-0.61421 1.6251-0.91876 2.5229-1.5038 5.1428-3.3515 2.4721-1.7434 4.1441-2.7986 5.5723-3.5167 1.0311-0.51844 2.9332-1.2731 3.0813-1.2226 0.0513 0.0175-0.40546 0.32816-1.015 0.69038-0.60951 0.36222-2.0307 1.308-3.1581 2.1018-2.8452 2.0032-4.4444 3.0104-5.8831 3.7053-0.67773 0.32735-1.2328 0.65691-1.2335 0.73237-0.0021 0.23808 0.73447 0.29039 3.2783 0.2328 1.9228-0.0435 2.7484-0.11165 3.7182-0.30679 1.6443-0.33089 3.5584-0.96797 5.3056-1.7659 0.78089-0.35664 1.4963-0.68059 1.5898-0.71989 0.0935-0.0393 8e-3 0.13275-0.18945 0.38234-0.19767 0.24959-0.44918 0.64205-0.5589 0.87213-0.1982 0.41563-0.19752 0.42116 0.1056 0.85856 0.34824 0.5025 0.88525 0.83438 1.7717 1.0949 0.33858 0.0995 0.88007 0.33019 1.2033 0.51262 1.0204 0.57589 1.3658 0.63261 2.5785 0.4234 0.58799-0.10143 1.7905-0.26045 2.6722-0.35336 0.88174-0.0929 2.3423-0.34648 3.2457-0.56348s1.9757-0.44796 2.3828-0.51325c0.86518-0.13874 2.6194-0.16031 2.6194-0.0322 0 0.0485-0.42279 0.17546-0.93955 0.28208-0.51675 0.10662-1.9488 0.47669-3.1823 0.82237-2.795 0.78327-3.8122 1.0207-5.3452 1.2476-1.1013 0.16298-2.7963 0.21368-3.5158 0.10517z" />
        <path
           id="path82"
           d="m113.96 125.01c0.3445-0.19018 1.2781-0.68868 2.0746-1.1078l1.4482-0.76199 0.55717 0.54878c0.34097 0.33585 0.71072 0.58343 0.9529 0.63805 0.57817 0.13039 1.6699-0.0529 2.7146-0.45581 0.99552-0.38391 1.2507-0.56613 2.9242-2.0881 1.2264-1.1154 2.0037-1.6579 2.8574-1.9944 0.66302-0.26134 2.135-0.57951 2.6662-0.57629 0.3121 2e-3 0.19637 0.0792-0.69063 0.46165-1.8619 0.8027-3.0758 1.6362-4.9435 3.3945-0.59551 0.56062-1.2398 1.1005-1.4318 1.1998-0.76621 0.39623-1.7695 0.5261-4.9157 0.63633-1.9678 0.069-3.4281 0.17394-3.929 0.28248-0.43843 0.095-0.8228 0.17182-0.85413 0.17069-0.0314-1e-3 0.22487-0.15767 0.56938-0.34785z" />
        <path
           id="path84"
           d="m82.093 129.68c0.0456-0.57077 0.10555-1.0604 0.13321-1.0881 0.06012-0.0601 0.2627 0.82892 0.36114 1.5849 0.06967 0.53504 0.0669 0.54095-0.25341 0.54095h-0.32385z" />
        <path
           id="path86"
           d="m83.441 125.16c0-0.18732 1.3699-1.5421 1.9761-1.9543 0.98697-0.6711 2.5143-1.357 4.5775-2.0557 2.9679-1.0051 2.9494-0.903-0.07353 0.40545-2.9367 1.2711-4.5958 2.2007-6.1099 3.4233-0.20357 0.16438-0.37013 0.24593-0.37013 0.18122z" />
        <path
           id="path88"
           d="m59.423 141.86c-1.0792-1.2458-2.4541-3.0521-2.3799-3.1264 0.1016-0.10159 1.3795 0.90767 1.941 1.533 0.55997 0.62359 1.3995 2.1603 1.3164 2.4096-0.02606 0.0782-0.42091-0.28913-0.87747-0.8162z" />
        <path
           id="path90"
           d="m96.636 117.59c0.87994-1.1786 1.4765-2.4712 1.9447-4.2138l0.22183-0.82563 0.0052 0.74025c0.01138 1.6133-0.60867 3.1263-1.7381 4.241-0.36562 0.36085-0.71321 0.65609-0.77241 0.65609-0.0592 0 0.09324-0.26905 0.33876-0.59789z" />
      </g>
      <path
         id="path94"
         stroke-width=".020169"
         d="m97.576 143.27c-1.0593-0.0632-1.5033-0.10914-2.2388-0.23156-0.94028-0.15651-2.1571-0.45718-2.3396-0.57814-0.04437-0.0294-0.16236-0.0969-0.2622-0.15003-0.09984-0.0531-0.17048-0.0968-0.15699-0.097 0.01349-2.1e-4 0.1451 0.0483 0.29245 0.10786 0.77955 0.31494 2.1142 0.67807 2.4931 0.6783 0.09058 5e-5 0.10633-5e-3 0.10071-0.0345-0.0037-0.019-0.03744-0.0553-0.07505-0.0807-0.03762-0.0254-0.06241-0.0461-0.0551-0.0461 0.0073 0 0.11628 0.0312 0.24215 0.0694 0.50564 0.15327 1.0005 0.22874 1.6162 0.24647 0.70063 0.0202 1.2728-0.0312 2.622-0.23555 0.92186-0.13962 1.1589-0.17138 1.5801-0.21173 0.32071-0.0307 1.1207-0.0375 1.3444-0.0114 0.13692 0.016 0.14963 0.01-0.19161 0.0933-0.83981 0.20539-1.8631 0.36249-2.8919 0.44398-0.35834 0.0284-1.7976 0.0543-2.0798 0.0375z" />
    </g>
    <g
       id="g120"
       fill="#72b200">
      <g
         id="g112"
         stroke-width=".26458">
        <circle
           id="circle98"
           opacity=".62"
           r="5.1179"
           cy="135.12"
           cx="79.385" />
        <circle
           id="circle100"
           opacity=".62"
           r="1.5053"
           cy="144.37"
           cx="151.03" />
        <circle
           id="circle102"
           opacity=".62"
           r="9.4331"
           cy="143.06"
           cx="123.23" />
        <circle
           id="circle104"
           opacity=".62"
           r="1.9067"
           cy="138.75"
           cx="71.952" />
        <circle
           id="circle106"
           opacity=".62"
           r="1.8063"
           cy="115.61"
           cx="112.22" />
        <circle
           id="circle108"
           opacity=".62"
           r="2.9102"
           cy="117.15"
           cx="145.16" />
        <circle
           id="circle110"
           opacity=".62"
           r="3.9137"
           cy="139.75"
           cx="109.68" />
      </g>
      <circle
         id="circle114"
         stroke-width="1.2508"
         opacity=".62"
         r="2.8463"
         cy="106.56"
         cx="124.21" />
      <circle
         id="circle116"
         stroke-width=".26458"
         opacity=".62"
         r="3.412"
         cy="123.2"
         cx="126.47" />
      <circle
         id="circle118"
         stroke-width=".26458"
         opacity=".62"
         r="2.2077"
         cy="179.26"
         cx="115.12" />
    </g>
    <g
       id="g138"
       fill="#aad400">
      <g
         id="g134"
         stroke-width=".26458">
        <circle
           id="circle122"
           opacity=".7"
           r="6.0211"
           cy="154.5"
           cx="112.59" />
        <circle
           id="circle124"
           opacity=".7"
           r="4.1144"
           cy="104.27"
           cx="116.43" />
        <circle
           id="circle126"
           opacity=".7"
           r="2.1074"
           cy="175.27"
           cx="122.09" />
        <circle
           id="circle128"
           opacity=".7"
           r="2.1074"
           cy="124.14"
           cx="150.09" />
        <circle
           id="circle130"
           opacity=".7"
           r="2.4084"
           cy="127.34"
           cx="65.84" />
        <circle
           id="circle132"
           opacity=".7"
           r="2.3081"
           cy="143.57"
           cx="68.912" />
      </g>
      <ellipse
         id="ellipse136"
         stroke-width=".61103"
         opacity=".7"
         ry="4.9172"
         rx="4.8169"
         cy="171.1"
         cx="115.24" />
    </g>
    <g
       id="g156"
       stroke-width=".26458"
       fill="#bcd35f">
      <circle
         id="circle140"
         opacity=".7"
         r="4.1144"
         cy="137.13"
         cx="64.918" />
      <circle
         id="circle142"
         opacity=".7"
         r="5.419"
         cy="97.681"
         cx="131.54" />
      <circle
         id="circle144"
         opacity=".7"
         r="1.9067"
         cy="121.49"
         cx="120.04" />
      <circle
         id="circle146"
         opacity=".7"
         r="1.9067"
         cy="120.76"
         cx="139.7" />
      <circle
         id="circle148"
         opacity=".7"
         r="1.0035"
         cy="169.35"
         cx="105.57" />
      <circle
         id="circle150"
         opacity=".7"
         r="3.2113"
         cy="151.9"
         cx="133.47" />
      <circle
         id="circle152"
         opacity=".7"
         r="3.8134"
         cy="174.89"
         cx="104.81" />
      <circle
         id="circle154"
         opacity=".7"
         r="6.9243"
         cy="135.53"
         cx="143.4" />
    </g>
    <g
       id="g170"
       stroke-width=".26458"
       fill="#338000">
      <circle
         id="circle158"
         opacity=".7"
         r="4.1044"
         cy="185.26"
         cx="121.88" />
      <circle
         id="circle160"
         opacity=".7"
         r="3.405"
         cy="117"
         cx="157.02" />
      <circle
         id="circle162"
         opacity=".7"
         r="3.8307"
         cy="130.86"
         cx="53.142" />
      <circle
         id="circle164"
         opacity=".7"
         r="5.4268"
         cy="119.65"
         cx="104.99" />
      <circle
         id="circle166"
         opacity=".7"
         r="1.0641"
         cy="135.05"
         cx="114.92" />
      <circle
         id="circle168"
         opacity=".7"
         r="1.5961"
         cy="168.68"
         cx="122.81" />
    </g>
    <g
       style="font-style:italic;font-weight:bold;font-size:22.578px;line-height:1.25;font-family:'Bodoni* 11';letter-spacing:0px;word-spacing:0px;fill:#383838;stroke-width:0.26458"
       id="text176"
       aria-label="ReplenishLandscaping">
      <path
         id="path1019"
         d="m 170.77492,117.16691 v 0.45156 h 8.12808 v -0.45156 h -2.38198 l 1.87398,-8.01519 h 1.18534 c 5.55419,0 -1.19663,8.63608 5.08005,8.63608 1.03859,0 1.78366,-0.12417 2.59647,-0.44027 l -0.13547,-0.42898 c -0.31609,0.13547 -0.57574,0.25965 -1.04987,0.25965 -2.44972,0 2.40455,-7.58621 -4.52689,-8.2071 3.9963,-0.23707 6.50246,-1.96429 6.50246,-4.89943 0,-2.48358 -2.23522,-3.3867 -5.19294,-3.3867 h -8.35386 v 0.45156 h 2.26909 l -3.74795,16.03038 z m 11.289,-16.03038 c 1.98687,0 2.31425,1.26437 2.31425,2.37069 0,2.00944 -1.16277,5.19294 -4.34627,5.19294 h -1.5353 l 1.77237,-7.56363 z" />
      <path
         id="path1021"
         d="m 191.4789,115.01071 c 0,-0.65476 0.0677,-1.34339 0.2032,-2.02073 2.63034,-0.0564 7.13465,-0.59832 7.13465,-3.65764 0,-1.62561 -1.71593,-2.32553 -3.906,-2.32553 -3.29639,0 -6.90887,2.86741 -6.90887,7.11207 0,2.70936 1.98687,3.72537 4.15436,3.72537 2.50615,0 4.53817,-1.71593 5.53161,-3.45443 h -0.42899 c -0.97085,1.58046 -2.6642,2.7658 -4.1995,2.7658 -1.10633,0 -1.58046,-0.81281 -1.58046,-2.14491 z m 3.5899,-7.5975 c 0.63218,0 0.79023,0.74508 0.79023,1.58046 0,2.68679 -2.38198,3.45444 -4.08662,3.58991 0.60961,-2.72065 2.09975,-5.17037 3.29639,-5.17037 z" />
      <path
         id="path1023"
         d="m 197.22498,122.81141 v 0.45156 h 6.20895 v -0.45156 h -1.47886 l 1.93042,-8.25226 c 0.0677,1.96429 1.0273,3.2851 2.68679,3.2851 2.23522,0 5.77996,-2.461 5.77996,-6.9766 0,-2.93514 -2.03202,-3.84955 -3.5899,-3.84955 -1.81753,0 -3.14963,1.59175 -3.96244,3.42057 l 0.75637,-3.20608 h -4.78654 v 0.45156 h 1.51273 l -3.48831,15.12726 z m 7.02176,-8.46675 c 0,-2.34811 1.55788,-6.20895 3.3867,-6.20895 0.81281,0 1.24179,0.83539 1.24179,2.0546 0,3.02545 -1.80624,6.45731 -3.36412,6.45731 -0.69992,0 -1.26437,-0.88055 -1.26437,-2.30296 z" />
      <path
         id="path1025"
         d="m 219.80295,113.93826 -0.45156,-0.13547 c -0.51929,1.49015 -1.74979,3.16092 -2.85612,3.16092 -0.29351,0 -0.4064,-0.18063 -0.4064,-0.42898 0,-0.11289 0.0226,-0.27094 0.0452,-0.40641 l 3.55603,-15.44335 h -5.26067 v 0.45156 h 2.00944 l -3.2851,14.33703 c -0.0226,0.13547 -0.0452,0.38383 -0.0452,0.49672 0,1.35468 0.71121,1.87397 2.11105,1.87397 2.16748,0 3.72537,-1.64819 4.58333,-3.90599 z" />
      <path
         id="path1027"
         d="m 224.74748,115.01071 c 0,-0.65476 0.0677,-1.34339 0.2032,-2.02073 2.63034,-0.0564 7.13465,-0.59832 7.13465,-3.65764 0,-1.62561 -1.71593,-2.32553 -3.906,-2.32553 -3.29639,0 -6.90887,2.86741 -6.90887,7.11207 0,2.70936 1.98687,3.72537 4.15436,3.72537 2.50615,0 4.53817,-1.71593 5.53161,-3.45443 h -0.42899 c -0.97085,1.58046 -2.6642,2.7658 -4.1995,2.7658 -1.10633,0 -1.58046,-0.81281 -1.58046,-2.14491 z m 3.5899,-7.5975 c 0.63218,0 0.79023,0.74508 0.79023,1.58046 0,2.68679 -2.38198,3.45444 -4.08662,3.58991 0.60961,-2.72065 2.09975,-5.17037 3.29639,-5.17037 z" />
      <path
         id="path1029"
         d="m 235.46072,107.68415 -2.37069,9.93432 h 3.16092 l 1.01601,-4.26724 c 0.90312,-3.26252 2.79967,-5.57677 3.75924,-5.57677 0.81281,0 0.82409,1.19664 0.23707,2.92385 l -1.53531,4.50431 c -0.0677,0.22578 -0.12418,0.47414 -0.12418,0.81281 0,1.19664 0.8241,1.82882 2.33683,1.82882 2.16748,0 3.49959,-1.64819 4.35755,-3.90599 l -0.45156,-0.13547 c -0.51929,1.49015 -1.67077,3.31896 -2.84483,3.31896 -0.29351,0 -0.42898,-0.18062 -0.42898,-0.42898 0,-0.11289 0.0226,-0.27093 0.0677,-0.4064 l 1.87398,-5.62192 c 0.69992,-2.11105 -0.24836,-3.65764 -2.55132,-3.65764 -1.82881,0 -3.10447,1.54659 -4.04146,3.62377 l 0.81281,-3.39799 h -4.74138 v 0.45156 z" />
      <path
         id="path1031"
         d="m 249.39131,102.37832 c 0,1.08374 0.83538,1.91913 1.91913,1.91913 1.08374,0 1.91913,-0.83539 1.91913,-1.91913 0,-1.08374 -0.83539,-1.91913 -1.91913,-1.91913 -1.08375,0 -1.91913,0.83539 -1.91913,1.91913 z m 4.47044,11.55994 -0.45156,-0.13547 c -0.51929,1.49015 -1.7498,3.16092 -2.85612,3.16092 -0.29351,0 -0.4064,-0.18063 -0.4064,-0.42898 0,-0.11289 0.0226,-0.27094 0.0452,-0.40641 l 2.1562,-8.89573 h -4.89942 v 0.45156 h 1.62561 l -1.86268,7.78941 c -0.0339,0.13547 -0.0452,0.38383 -0.0452,0.49672 0,1.35468 0.71121,1.87397 2.11105,1.87397 2.16748,0 3.72537,-1.64819 4.58333,-3.90599 z" />
      <path
         id="path1033"
         d="m 262.87035,108.16958 c -0.0903,-0.0226 -0.15805,-0.12418 -0.50801,-0.12418 -0.63218,0 -1.17405,0.56445 -1.17405,1.35468 0,0.90312 0.77894,1.37726 1.45628,1.37726 0.79023,0 1.41112,-0.53059 1.41112,-1.45629 0,-1.17405 -1.24179,-2.29166 -3.68021,-2.29166 -1.87398,0 -4.13178,1.19663 -4.13178,3.43185 0,3.29639 5.14779,3.43186 5.14779,5.28326 0,0.8128 -0.99343,1.69335 -2.57389,1.69335 -2.07718,0 -2.73194,-0.69992 -3.11577,-1.17406 0.0903,0.0226 0.2032,0.2032 0.67734,0.2032 0.76765,0 1.51273,-0.56445 1.51273,-1.46757 0,-1.01601 -0.85797,-1.49015 -1.53531,-1.49015 -0.79023,0 -1.60303,0.58703 -1.60303,1.62562 0,1.24179 1.15147,2.75452 4.06404,2.75452 2.52873,0 4.67364,-1.58046 4.67364,-3.7028 0,-3.00287 -5.08005,-3.27381 -5.08005,-5.30583 0,-0.8128 0.65476,-1.39983 2.07718,-1.39983 1.3321,0 2.06588,0.42898 2.38198,0.68863 z" />
      <path
         id="path1035"
         d="m 272.87235,110.69831 -1.5353,4.50431 c -0.0564,0.20321 -0.11289,0.47414 -0.11289,0.81281 0,1.19664 0.81281,1.82882 2.32553,1.82882 2.16749,0 3.49959,-1.64819 4.35756,-3.90599 l -0.45156,-0.13547 c -0.5193,1.49015 -1.67077,3.31896 -2.84483,3.31896 -0.29351,0 -0.42898,-0.18062 -0.42898,-0.42898 0,-0.11289 0.0226,-0.27093 0.0677,-0.4064 l 1.87398,-5.62192 c 0.69991,-2.11105 -0.24836,-3.65764 -2.55132,-3.65764 -1.82882,0 -3.09318,1.5353 -4.01888,3.60119 l 2.31424,-9.92303 h -4.74138 v 0.45156 h 1.46757 l -3.83826,16.48194 h 3.16092 l 1.00472,-4.30111 c 0.88055,-3.25123 2.75452,-5.5429 3.71409,-5.5429 0.8128,0 0.82409,1.19664 0.23706,2.92385 z" />
      <path
         id="path1037"
         d="m 183.47505,145.8407 1.17405,-5.08005 h -0.45156 c -0.99343,2.8674 -2.37069,4.62849 -5.91543,4.62849 h -2.21265 l 3.72537,-16.03038 h 2.13362 v -0.45156 h -7.56363 v 0.45156 h 1.93042 l -3.72537,16.03038 h -2.02073 v 0.45156 z" />
      <path
         id="path1039"
         d="m 199.42637,142.16048 -0.45156,-0.13546 c -0.51929,1.49014 -1.76108,3.16092 -2.8674,3.16092 -0.29352,0 -0.40641,-0.18063 -0.40641,-0.42899 0,-0.11289 0.0226,-0.27093 0.0452,-0.4064 l 2.28038,-8.89573 h -3.0819 l -0.73378,2.78838 c -0.12418,-1.79495 -0.98215,-3.00287 -2.55132,-3.00287 -2.34811,0 -5.89286,2.47229 -5.89286,6.98789 0,2.93514 2.03202,3.83826 3.58991,3.83826 1.71592,0 3.00287,-1.42242 3.81568,-3.11577 l -0.18063,0.85797 c -0.0226,0.13547 -0.0451,0.38382 -0.0451,0.49671 0,1.14019 0.49671,1.76109 1.89655,1.76109 2.16749,0 3.72537,-1.6482 4.58333,-3.906 z m -5.55418,-3.40927 c 0,2.34811 -1.55789,6.20895 -3.3867,6.20895 -0.81281,0 -1.24179,-0.83539 -1.24179,-2.0546 0,-3.02545 1.80624,-6.45731 3.36412,-6.45731 0.69992,0 1.26437,0.88054 1.26437,2.30296 z" />
      <path
         id="path1041"
         d="m 202.91467,135.90638 -2.37069,9.93432 h 3.16092 l 1.01601,-4.26724 c 0.90312,-3.26252 2.79967,-5.57677 3.75924,-5.57677 0.81281,0 0.8241,1.19663 0.23707,2.92385 l -1.53531,4.50431 c -0.0677,0.22578 -0.12418,0.47414 -0.12418,0.81281 0,1.19663 0.8241,1.82882 2.33683,1.82882 2.16749,0 3.49959,-1.6482 4.35755,-3.906 l -0.45156,-0.13546 c -0.51929,1.49014 -1.67077,3.31896 -2.84483,3.31896 -0.29351,0 -0.42898,-0.18062 -0.42898,-0.42898 0,-0.11289 0.0226,-0.27094 0.0677,-0.4064 l 1.87397,-5.62193 c 0.69992,-2.11104 -0.24836,-3.65763 -2.55131,-3.65763 -1.82882,0 -3.10448,1.54659 -4.04147,3.62377 l 0.81281,-3.39799 h -4.74138 v 0.45156 z" />
      <path
         id="path1043"
         d="m 229.16153,142.16048 -0.45156,-0.13546 c -0.5193,1.49014 -1.76109,3.16092 -2.86741,3.16092 -0.29351,0 -0.4064,-0.18063 -0.4064,-0.42899 0,-0.11289 0.0226,-0.27093 0.0452,-0.4064 l 3.45444,-15.44335 h -5.26068 v 0.45156 h 2.00944 l -2.02073,8.86186 c -0.14675,-1.78366 -1.09503,-2.99158 -2.6642,-2.99158 -2.23522,0 -5.77997,2.48358 -5.77997,6.99918 0,2.93514 2.03202,3.83826 3.5899,3.83826 1.73851,0 3.03674,-1.45628 3.86084,-3.1835 l -0.16933,0.81281 c -0.0226,0.13547 -0.0452,0.38382 -0.0452,0.49671 0,1.35468 0.7225,1.87398 2.12233,1.87398 2.16749,0 3.72537,-1.6482 4.58334,-3.906 z m -5.83642,-3.40927 c 0,2.34811 -1.55788,6.20895 -3.3867,6.20895 -0.81281,0 -1.24179,-0.83539 -1.24179,-2.0546 0,-3.02545 1.80624,-6.45731 3.36412,-6.45731 0.69992,0 1.26437,0.88054 1.26437,2.30296 z" />
      <path
         id="path1045"
         d="m 237.77499,136.39181 c -0.0903,-0.0226 -0.15804,-0.12418 -0.508,-0.12418 -0.63219,0 -1.17406,0.56445 -1.17406,1.35468 0,0.90312 0.77894,1.37725 1.45628,1.37725 0.79023,0 1.41113,-0.53058 1.41113,-1.45628 0,-1.17405 -1.24179,-2.29166 -3.68022,-2.29166 -1.87397,0 -4.13177,1.19663 -4.13177,3.43185 0,3.29639 5.14778,3.43186 5.14778,5.28325 0,0.81281 -0.99343,1.69335 -2.57389,1.69335 -2.07717,0 -2.73193,-0.69991 -3.11576,-1.17405 0.0903,0.0226 0.2032,0.2032 0.67734,0.2032 0.76765,0 1.51273,-0.56445 1.51273,-1.46757 0,-1.01601 -0.85797,-1.49015 -1.53531,-1.49015 -0.79023,0 -1.60304,0.58703 -1.60304,1.62562 0,1.24179 1.15148,2.75451 4.06404,2.75451 2.52874,0 4.67365,-1.58046 4.67365,-3.70279 0,-3.00287 -5.08005,-3.27381 -5.08005,-5.30583 0,-0.81281 0.65476,-1.39983 2.07717,-1.39983 1.33211,0 2.06589,0.42898 2.38198,0.68863 z" />
      <path
         id="path1047"
         d="m 249.92192,136.79821 c -0.0903,-0.0226 -0.4064,-0.16934 -0.88054,-0.16934 -0.76765,0 -1.73851,0.63219 -1.73851,1.76109 0,1.1289 0.94828,1.71593 1.8514,1.71593 1.01601,0 1.85139,-0.75637 1.85139,-2.02073 0,-1.73851 -1.55788,-2.85612 -3.63505,-2.85612 -3.40928,0 -6.84114,2.82225 -6.84114,7.11207 0,2.82225 1.98687,3.72537 3.81568,3.72537 2.28038,0 4.15436,-1.26437 5.41872,-3.45444 h -0.42898 c -1.24179,1.87398 -2.73194,2.68679 -3.86084,2.68679 -0.99343,0 -1.46757,-0.60961 -1.46757,-2.50616 0,-2.79967 1.35468,-7.06692 3.92858,-7.06692 0.99343,0 1.64819,0.53059 1.98686,1.07246 z" />
      <path
         id="path1049"
         d="m 266.24578,142.16048 -0.45156,-0.13546 c -0.5193,1.49014 -1.76109,3.16092 -2.86741,3.16092 -0.29351,0 -0.4064,-0.18063 -0.4064,-0.42899 0,-0.11289 0.0226,-0.27093 0.0451,-0.4064 l 2.28038,-8.89573 h -3.08189 l -0.73379,2.78838 c -0.12418,-1.79495 -0.98214,-3.00287 -2.55131,-3.00287 -2.34812,0 -5.89286,2.47229 -5.89286,6.98789 0,2.93514 2.03202,3.83826 3.5899,3.83826 1.71593,0 3.00287,-1.42242 3.81568,-3.11577 l -0.18062,0.85797 c -0.0226,0.13547 -0.0452,0.38382 -0.0452,0.49671 0,1.14019 0.49672,1.76109 1.89655,1.76109 2.16749,0 3.72537,-1.6482 4.58334,-3.906 z m -5.55419,-3.40927 c 0,2.34811 -1.55788,6.20895 -3.3867,6.20895 -0.81281,0 -1.24179,-0.83539 -1.24179,-2.0546 0,-3.02545 1.80624,-6.45731 3.36412,-6.45731 0.69992,0 1.26437,0.88054 1.26437,2.30296 z" />
      <path
         id="path1051"
         d="m 264.76692,151.03364 v 0.45156 h 6.20894 v -0.45156 h -1.47885 l 1.93041,-8.25226 c 0.0677,1.96429 1.0273,3.2851 2.68679,3.2851 2.23522,0 5.77996,-2.461 5.77996,-6.9766 0,-2.93514 -2.03202,-3.84955 -3.5899,-3.84955 -1.81753,0 -3.14963,1.59175 -3.96244,3.42056 l 0.75637,-3.20607 h -4.78654 v 0.45156 h 1.51273 l -3.4883,15.12726 z m 7.02175,-8.46675 c 0,-2.34811 1.55788,-6.20895 3.3867,-6.20895 0.81281,0 1.24179,0.83538 1.24179,2.0546 0,3.02545 -1.80624,6.4573 -3.36412,6.4573 -0.69992,0 -1.26437,-0.88054 -1.26437,-2.30295 z" />
      <path
         id="path1053"
         d="m 284.02593,130.60055 c 0,1.08374 0.83538,1.91913 1.91913,1.91913 1.08374,0 1.91913,-0.83539 1.91913,-1.91913 0,-1.08375 -0.83539,-1.91913 -1.91913,-1.91913 -1.08375,0 -1.91913,0.83538 -1.91913,1.91913 z m 4.47044,11.55993 -0.45156,-0.13546 c -0.51929,1.49014 -1.74979,3.16092 -2.85612,3.16092 -0.29351,0 -0.4064,-0.18063 -0.4064,-0.42899 0,-0.11289 0.0226,-0.27093 0.0452,-0.4064 l 2.15619,-8.89573 h -4.89942 v 0.45156 h 1.62561 l -1.86268,7.78941 c -0.0339,0.13547 -0.0452,0.38382 -0.0452,0.49671 0,1.35468 0.71121,1.87398 2.11105,1.87398 2.16748,0 3.72537,-1.6482 4.58333,-3.906 z" />
      <path
         id="path1055"
         d="m 291.19439,135.90638 -2.37069,9.93432 h 3.16092 l 1.01601,-4.26724 c 0.90312,-3.26252 2.79967,-5.57677 3.75923,-5.57677 0.81281,0 0.8241,1.19663 0.23707,2.92385 l -1.5353,4.50431 c -0.0677,0.22578 -0.12418,0.47414 -0.12418,0.81281 0,1.19663 0.8241,1.82882 2.33682,1.82882 2.16749,0 3.49959,-1.6482 4.35756,-3.906 l -0.45156,-0.13546 c -0.5193,1.49014 -1.67078,3.31896 -2.84483,3.31896 -0.29352,0 -0.42898,-0.18062 -0.42898,-0.42898 0,-0.11289 0.0226,-0.27094 0.0677,-0.4064 l 1.87397,-5.62193 c 0.69992,-2.11104 -0.24835,-3.65763 -2.55131,-3.65763 -1.82882,0 -3.10447,1.54659 -4.04146,3.62377 l 0.81281,-3.39799 h -4.74138 v 0.45156 z" />
      <path
         id="path1057"
         d="m 307.665,142.22822 c 2.84483,0 5.48645,-1.69335 5.48645,-4.17693 0,-0.46285 -0.0903,-0.85797 -0.24835,-1.18535 0.69991,-0.77894 1.41112,-1.07245 2.07717,-1.07245 0.49672,0 0.97086,0.14676 1.19664,0.508 -0.0903,-0.0452 -0.47414,-0.19191 -0.77895,-0.19191 -0.80151,0 -1.30952,0.59832 -1.30952,1.34339 0,0.97086 0.73379,1.41113 1.41113,1.41113 0.67734,0 1.4337,-0.42899 1.4337,-1.67078 0,-0.93698 -0.6209,-1.85139 -1.953,-1.85139 -0.67734,0 -1.5353,0.32738 -2.32553,1.11761 -0.66605,-0.86925 -1.94171,-1.2305 -3.40928,-1.2305 -2.84483,0 -5.48645,1.69335 -5.48645,4.17693 0,1.47886 0.92569,2.30295 2.26908,2.64162 -1.64819,0.33867 -3.01416,1.14019 -3.01416,2.5739 0,0.83538 0.58703,1.38854 1.50144,1.69335 -1.29824,0.23707 -3.29639,1.04987 -3.29639,2.79967 0,1.91913 2.67549,2.59647 5.3397,2.59647 3.04803,0 6.28797,-1.73851 6.28797,-4.92201 0,-1.9417 -1.0273,-2.8674 -3.05932,-2.8674 -0.63218,0 -1.60304,0.0226 -2.39327,0.0226 -1.24179,0 -2.22393,-0.0565 -2.22393,-0.55316 0,-0.63219 0.90312,-1.00473 1.73851,-1.19664 0.24835,0.0226 0.49671,0.0339 0.75636,0.0339 z m 0.0564,-0.45156 c -0.65476,0 -0.88054,-0.58703 -0.88054,-1.35468 0,-1.89655 1.01601,-4.74138 2.34811,-4.74138 0.65477,0 0.88055,0.58703 0.88055,1.35468 0,1.89655 -1.01601,4.74138 -2.34812,4.74138 z m -3.75923,7.15722 c 0,-1.06116 0.51929,-1.98686 1.15148,-2.47229 0.47413,0.1016 1.01601,0.14676 1.58046,0.14676 h 2.461 c 1.24179,0 1.96428,0.42898 1.96428,1.64819 0,2.07718 -2.31424,2.96901 -4.32368,2.96901 -1.94171,0 -2.83354,-0.75636 -2.83354,-2.29167 z" />
    </g>
    <g
       style="font-size:14.111px;line-height:1.25;font-family:'Bodoni* 11';letter-spacing:0px;word-spacing:0px;fill:#095d00;stroke-width:0.26458"
       id="text184"
       aria-label="Construction,Design &amp;Maintenance">
      <path
         id="path1060"
         d="m 179.36992,165.89255 h -0.27517 c -0.0705,1.50988 -1.29821,2.70226 -3.15381,2.70226 -2.45531,0 -3.32314,-2.53292 -3.32314,-5.10113 0,-2.5682 0.86783,-5.10112 3.32314,-5.10112 1.5381,0 2.94215,1.05127 3.0127,2.70225 h 0.28222 v -2.89275 h -0.24694 l -0.73377,0.78316 c -0.64205,-0.57855 -1.53105,-0.92427 -2.46237,-0.92427 -2.86453,0 -4.79774,2.28598 -4.79774,5.43273 0,3.14676 1.93321,5.43274 4.79774,5.43274 1.07949,0 2.02493,-0.36689 2.66698,-0.97366 l 0.67027,0.83255 h 0.23989 z" />
      <path
         id="path1062"
         d="m 181.04912,165.53978 c 0,1.83443 1.24177,3.38664 3.23142,3.38664 1.98965,0 3.23142,-1.55221 3.23142,-3.38664 0,-1.83443 -1.24177,-3.38664 -3.23142,-3.38664 -1.98965,0 -3.23142,1.55221 -3.23142,3.38664 z m 1.44638,0 c 0,-1.32644 0.26811,-3.10442 1.78504,-3.10442 1.51694,0 1.77799,1.77798 1.77799,3.10442 0,1.32643 -0.26105,3.10442 -1.77799,3.10442 -1.51693,0 -1.78504,-1.77799 -1.78504,-3.10442 z" />
      <path
         id="path1064"
         d="m 188.31627,168.50309 v 0.28222 h 3.11147 v -0.28222 h -0.92427 v -2.8857 c 0,-1.15005 0.81844,-3.13264 2.07432,-3.13264 0.76905,0 0.95955,0.81844 0.95955,2.00376 v 4.01458 h -0.91016 v 0.28222 h 3.06914 v -0.28222 h -0.91721 v -4.21919 c 0,-1.22766 -0.35983,-2.13076 -1.97554,-2.13076 -1.28411,0 -1.9826,1.05127 -2.3001,2.10959 v -1.96848 h -2.1872 v 0.28222 h 0.92427 v 5.92662 z" />
      <path
         id="path1066"
         d="m 197.10035,168.92642 0.56444,-0.635 c 0.45155,0.38806 1.05833,0.635 1.70743,0.635 1.31938,0 2.32126,-0.83961 2.32126,-2.09548 0,-2.34949 -3.92286,-1.84855 -3.92286,-3.40076 0,-0.60677 0.55033,-0.9666 1.22766,-0.9666 1.16416,0 1.99671,0.83255 2.06726,1.6651 h 0.28222 v -1.97554 h -0.24694 l -0.52211,0.58561 c -0.40922,-0.33867 -0.9666,-0.5715 -1.59454,-0.5715 -1.34054,0 -1.9191,0.93838 -1.9191,1.84149 0,2.46942 3.73942,1.65804 3.73942,3.42897 0,0.82549 -0.74788,1.19238 -1.54515,1.19238 -1.03716,0 -1.96143,-0.79022 -2.11665,-1.76388 h -0.28222 v 2.06021 z" />
      <path
         id="path1068"
         d="m 206.90043,167.60704 -0.23283,-0.14817 c -0.254,0.49389 -0.68438,0.97366 -1.12888,0.97366 -0.40216,0 -0.55033,-0.18344 -0.55033,-0.88899 v -4.96707 h 1.50988 v -0.28222 h -1.50988 v -1.83443 c -0.28222,0.21166 -0.84666,0.42333 -1.26999,0.42333 v 1.4111 h -0.94544 v 0.28222 h 0.94544 v 4.64252 c 0,0.7761 0.21166,1.6651 1.36877,1.6651 0.89605,0 1.43932,-0.51506 1.81326,-1.27705 z" />
      <path
         id="path1070"
         d="m 207.6483,168.50309 v 0.28222 h 3.16086 v -0.28222 h -1.00894 v -2.74459 c 0,-1.48166 0.77611,-3.32314 1.96143,-3.32314 0.28222,0 0.52211,0.10583 0.5715,0.16933 -0.52917,-0.0705 -0.95955,0.24694 -0.95955,0.72672 0,0.47272 0.35277,0.74082 0.81844,0.74082 0.50094,0 0.80432,-0.38805 0.80432,-0.86782 0,-0.58561 -0.51505,-1.05127 -1.23471,-1.05127 -0.99482,0 -1.64393,0.9031 -1.96143,1.98965 v -1.84854 h -2.15192 v 0.28222 h 0.92427 v 5.92662 z" />
      <path
         id="path1072"
         d="m 220.38346,168.50309 v -6.20884 h -2.26481 v 0.28222 h 0.98777 v 2.8857 c 0,1.15004 -0.83255,3.13264 -2.09549,3.13264 -0.76905,0 -0.93838,-0.82549 -0.93838,-2.01082 v -4.28974 h -2.1872 v 0.28222 h 0.92427 v 4.21919 c 0,1.22765 0.35277,2.13076 1.96848,2.13076 1.30527,0 2.01788,-1.0936 2.32832,-2.1731 v 2.03199 h 2.19426 v -0.28222 z" />
      <path
         id="path1074"
         d="m 227.39662,163.30319 c -0.0847,-0.0565 -0.24694,-0.10584 -0.45155,-0.10584 -0.33161,0 -0.66322,0.24695 -0.66322,0.68439 0,0.56444 0.45155,0.79021 0.80433,0.79021 0.42333,0 0.79022,-0.29633 0.79022,-0.8396 0,-0.85372 -0.90311,-1.67921 -2.34243,-1.67921 -2.13076,0 -3.28081,1.55221 -3.28081,3.38664 0,2.11665 1.36877,3.38664 3.21731,3.38664 1.42521,0 2.16604,-0.84666 2.53292,-1.9826 h -0.28927 c -0.381,0.95955 -1.00188,1.65099 -2.15193,1.65099 -1.44638,0 -1.83443,-1.44638 -1.83443,-3.05503 0,-1.32644 0.3175,-3.09031 1.94026,-3.09031 0.83255,0 1.48166,0.35983 1.7286,0.85372 z" />
      <path
         id="path1076"
         d="m 233.07627,167.60704 -0.23283,-0.14817 c -0.254,0.49389 -0.68438,0.97366 -1.12888,0.97366 -0.40216,0 -0.55033,-0.18344 -0.55033,-0.88899 v -4.96707 h 1.50988 v -0.28222 h -1.50988 v -1.83443 c -0.28222,0.21166 -0.84666,0.42333 -1.26999,0.42333 v 1.4111 h -0.94544 v 0.28222 h 0.94544 v 4.64252 c 0,0.7761 0.21167,1.6651 1.36877,1.6651 0.89605,0 1.43932,-0.51506 1.81326,-1.27705 z" />
      <path
         id="path1078"
         d="m 234.46619,158.90761 c 0,0.46566 0.381,0.84666 0.84666,0.84666 0.46566,0 0.84666,-0.381 0.84666,-0.84666 0,-0.46566 -0.381,-0.84666 -0.84666,-0.84666 -0.46566,0 -0.84666,0.381 -0.84666,0.84666 z m -0.57149,9.59548 v 0.28222 h 3.10442 v -0.28222 h -0.91722 v -6.20884 h -2.1872 v 0.28222 h 0.91721 v 5.92662 z" />
      <path
         id="path1080"
         d="m 238.02921,165.53978 c 0,1.83443 1.24176,3.38664 3.23141,3.38664 1.98966,0 3.23142,-1.55221 3.23142,-3.38664 0,-1.83443 -1.24176,-3.38664 -3.23142,-3.38664 -1.98965,0 -3.23141,1.55221 -3.23141,3.38664 z m 1.44637,0 c 0,-1.32644 0.26811,-3.10442 1.78504,-3.10442 1.51694,0 1.77799,1.77798 1.77799,3.10442 0,1.32643 -0.26105,3.10442 -1.77799,3.10442 -1.51693,0 -1.78504,-1.77799 -1.78504,-3.10442 z" />
      <path
         id="path1082"
         d="m 245.29635,168.50309 v 0.28222 h 3.11148 v -0.28222 h -0.92427 v -2.8857 c 0,-1.15005 0.81844,-3.13264 2.07432,-3.13264 0.76905,0 0.95954,0.81844 0.95954,2.00376 v 4.01458 h -0.91015 v 0.28222 h 3.06914 v -0.28222 h -0.91722 v -4.21919 c 0,-1.22766 -0.35983,-2.13076 -1.97554,-2.13076 -1.2841,0 -1.98259,1.05127 -2.30009,2.10959 v -1.96848 h -2.18721 v 0.28222 h 0.92428 v 5.92662 z" />
      <path
         id="path1084"
         d="m 253.74883,168.09387 c 0,0.46566 0.28222,0.83255 0.81844,0.83255 0.38099,0 0.67027,-0.22578 0.79021,-0.51505 0.15522,1.25588 -0.64205,2.23659 -1.63687,2.23659 v 0.27517 c 1.26999,0 1.96142,-1.2065 1.96142,-2.19427 0,-1.0301 -0.43744,-1.46754 -0.98777,-1.46754 -0.53621,0 -0.94543,0.36689 -0.94543,0.83255 z" />
      <path
         id="path1086"
         d="m 174.60745,187.08408 c 3.00565,0 5.07996,-2.28599 5.07996,-5.29163 0,-3.00564 -1.9332,-5.29162 -5.07996,-5.29162 h -3.95108 v 0.28222 h 1.26999 v 10.01881 h -1.26999 v 0.28222 z m 0,-10.30103 c 2.45532,0 3.4572,2.4412 3.4572,5.0094 0,2.5682 -0.86077,5.00941 -3.4572,5.00941 h -1.34054 v -10.01881 z" />
      <path
         id="path1088"
         d="m 187.34261,185.24259 h -0.3175 c -0.35278,0.97366 -1.15005,1.67921 -2.41298,1.67921 -1.46755,0 -1.82738,-1.4746 -1.82738,-3.08325 0,-0.16228 0,-0.3175 0.007,-0.47272 h 4.44496 c 0,-1.5381 -0.73377,-2.91392 -2.78692,-2.91392 -1.81326,0 -3.11148,1.26999 -3.11148,3.38664 0,2.11665 1.40405,3.38664 3.19615,3.38664 1.53104,0 2.4412,-0.84666 2.80809,-1.9826 z m -2.89276,-4.50846 c 1.18532,0 1.29116,1.4111 1.29116,2.34948 h -2.92804 c 0.0988,-1.29116 0.50094,-2.34948 1.63688,-2.34948 z" />
      <path
         id="path1090"
         d="m 188.88774,187.22519 0.56444,-0.635 c 0.45155,0.38805 1.05833,0.635 1.70743,0.635 1.31938,0 2.32126,-0.83961 2.32126,-2.09549 0,-2.34948 -3.92286,-1.84854 -3.92286,-3.40075 0,-0.60677 0.55033,-0.9666 1.22766,-0.9666 1.16416,0 1.99671,0.83255 2.06726,1.6651 h 0.28222 v -1.97554 h -0.24694 l -0.52211,0.5856 c -0.40922,-0.33866 -0.9666,-0.57149 -1.59454,-0.57149 -1.34055,0 -1.9191,0.93838 -1.9191,1.84148 0,2.46943 3.73942,1.65804 3.73942,3.42898 0,0.82549 -0.74789,1.19237 -1.54516,1.19237 -1.03716,0 -1.96143,-0.79021 -2.11665,-1.76387 h -0.28222 v 2.06021 z" />
      <path
         id="path1092"
         d="m 195.34351,177.20638 c 0,0.46566 0.381,0.84666 0.84666,0.84666 0.46566,0 0.84666,-0.381 0.84666,-0.84666 0,-0.46567 -0.381,-0.84666 -0.84666,-0.84666 -0.46566,0 -0.84666,0.38099 -0.84666,0.84666 z m -0.57149,9.59548 v 0.28222 h 3.10442 v -0.28222 h -0.91722 v -6.20884 h -2.1872 v 0.28222 h 0.91721 v 5.92662 z" />
      <path
         id="path1094"
         d="m 198.85008,186.03986 c 0,0.67733 0.50094,1.00188 1.31232,1.12183 -0.68438,0.0776 -1.76387,0.53621 -1.76387,1.68626 0,1.34055 1.44638,1.90499 3.12559,1.90499 1.60865,0 3.22436,-0.71261 3.22436,-2.51176 0,-1.9191 -1.29821,-2.14487 -2.35654,-2.14487 -0.39511,0 -0.71966,0.0141 -1.21354,0.0141 -0.77611,0 -1.3476,-0.0141 -1.3476,-0.52211 0,-0.43039 0.60677,-0.71966 1.16415,-0.82549 0.0917,0.007 0.1905,0.0141 0.28222,0.0141 1.14299,0 2.4906,-0.58561 2.4906,-2.13782 0,-0.47272 -0.127,-0.86077 -0.33161,-1.17121 0.35983,-0.52211 0.86077,-0.67733 1.23471,-0.67733 0.41627,0 0.7126,0.18344 0.81844,0.4445 -0.10584,-0.10584 -0.26106,-0.16934 -0.47272,-0.16934 -0.30339,0 -0.60677,0.23284 -0.60677,0.59267 0,0.46566 0.35983,0.7126 0.7126,0.7126 0.35278,0 0.73377,-0.20461 0.73377,-0.81844 0,-0.53621 -0.48683,-1.0301 -1.18532,-1.0301 -0.39511,0 -0.98777,0.1905 -1.40405,0.72672 -0.50094,-0.55739 -1.2841,-0.79727 -1.98965,-0.79727 -1.14299,0 -2.52587,0.63499 -2.52587,2.1872 0,1.15005 0.75494,1.77093 1.61571,2.01082 -0.82549,0.20461 -1.51693,0.65616 -1.51693,1.38993 z m 1.21355,-3.40075 c 0,-1.04421 0.38099,-1.90498 1.21354,-1.90498 0.83255,0 1.22061,0.86077 1.22061,1.90498 0,1.04421 -0.38806,1.86265 -1.22061,1.86265 -1.11477,0 -1.21354,-0.81844 -1.21354,-1.86265 z m -0.39511,5.97601 c 0,-0.56444 0.23989,-1.11477 0.81138,-1.41816 0.14817,0.007 0.31044,0.0141 0.47978,0.0141 h 1.53104 c 0.91721,0 1.74271,0.40922 1.74271,1.31233 0,1.25588 -1.12888,1.92615 -2.51176,1.92615 -1.38993,0 -2.05315,-0.91016 -2.05315,-1.83443 z" />
      <path
         id="path1096"
         d="m 207.08382,186.80186 v 0.28222 h 3.11147 v -0.28222 h -0.92427 v -2.8857 c 0,-1.15005 0.81844,-3.13265 2.07432,-3.13265 0.76905,0 0.95955,0.81844 0.95955,2.00377 v 4.01458 h -0.91016 v 0.28222 h 3.06914 v -0.28222 h -0.91722 v -4.21919 c 0,-1.22766 -0.35983,-2.13076 -1.97554,-2.13076 -1.2841,0 -1.98259,1.05127 -2.30009,2.10959 v -1.96848 h -2.1872 v 0.28222 h 0.92427 v 5.92662 z" />
      <path
         id="path1098"
         d="m 226.17596,180.59302 v 0.28222 h 1.72154 c -0.18344,1.43226 -0.79727,2.91392 -1.68627,4.02869 l -2.61759,-3.95108 c 1.42521,-0.72672 2.63171,-1.24177 2.63171,-2.72343 0,-1.12888 -1.15005,-1.8697 -2.65993,-1.8697 -1.63687,0 -2.83631,0.80432 -2.83631,2.07431 0,0.49389 0.28222,1.19944 0.64911,1.73566 l 0.85371,1.26293 c -0.79021,0.34572 -3.16792,1.31938 -3.16792,3.21731 0,1.62982 1.35466,2.57526 3.23142,2.57526 1.17121,0 2.21543,-0.43039 3.08326,-1.13594 l 0.67027,0.99483 h 3.30197 v -0.28222 h -1.88382 l -1.11477,-1.67921 c 0.97366,-1.19238 1.61571,-2.74459 1.82032,-4.24741 h 1.38994 v -0.28222 z m -3.10442,-0.42333 c -0.60678,-0.90311 -0.95955,-1.62277 -0.95955,-2.11665 0,-0.74789 0.36688,-1.45344 1.45343,-1.45344 1.05833,0 1.29821,0.93133 1.29821,1.59455 0,1.32643 -0.76199,2.10253 -1.41815,2.54703 z m -2.45532,4.40968 c 0,-1.49576 0.62794,-2.30009 1.75682,-2.94214 l 2.85748,4.24036 c -0.70555,0.55032 -1.50988,0.88899 -2.37065,0.88899 -1.32643,0 -2.24365,-1.05833 -2.24365,-2.18721 z" />
      <path
         id="path1100"
         d="m 170.72693,205.10064 v 0.28222 h 2.33537 v -0.28222 h -1.04421 v -9.91298 l 3.78174,10.33631 h 0.34572 l 3.62653,-10.49859 v 10.07526 h -1.13594 v 0.28222 h 3.46426 v -0.28222 h -0.99483 v -10.01881 h 0.99483 v -0.28222 h -2.54704 l -3.05503,8.82643 -3.2667,-8.82643 h -2.57526 v 0.28222 h 1.07244 v 10.01881 z" />
      <path
         id="path1102"
         d="m 186.05852,201.73516 c -2.07432,0 -3.12559,0.83255 -3.12559,2.05316 0,1.06538 0.78316,1.73565 1.95438,1.73565 1.03716,0 1.77093,-0.508 2.11665,-1.38288 v 0.15522 c 0,0.90311 0.56444,1.22766 1.22765,1.22766 0.5715,0 1.05833,-0.29633 1.34761,-0.73377 l -0.21167,-0.16228 c -0.21166,0.29633 -0.49388,0.46566 -0.69849,0.46566 -0.3175,0 -0.42333,-0.18344 -0.42333,-0.50094 V 201.079 c 0,-1.14299 -0.24695,-2.30009 -2.27188,-2.30009 -1.2841,0 -2.54703,0.56444 -2.54703,1.43932 0,0.508 0.33161,0.77611 0.75494,0.77611 0.36688,0 0.81138,-0.23989 0.81138,-0.80433 0,-0.381 -0.32455,-0.70555 -0.8396,-0.64205 0.29633,-0.23283 0.93838,-0.47272 1.57337,-0.47272 1.12888,0 1.27705,1.02305 1.27705,2.00376 v 0.65616 z m -0.68438,3.33726 c -0.69144,0 -1.05127,-0.55739 -1.05127,-1.37583 0,-0.88899 0.57149,-1.68626 1.73565,-1.68626 h 0.94544 v 0.78316 c 0,1.55927 -0.83961,2.27893 -1.62982,2.27893 z" />
      <path
         id="path1104"
         d="m 190.93385,195.50516 c 0,0.46566 0.381,0.84666 0.84666,0.84666 0.46566,0 0.84666,-0.381 0.84666,-0.84666 0,-0.46566 -0.381,-0.84666 -0.84666,-0.84666 -0.46566,0 -0.84666,0.381 -0.84666,0.84666 z m -0.57149,9.59548 v 0.28222 h 3.10442 v -0.28222 h -0.91722 v -6.20884 h -2.1872 v 0.28222 h 0.91721 v 5.92662 z" />
      <path
         id="path1106"
         d="m 194.56743,205.10064 v 0.28222 h 3.11147 v -0.28222 h -0.92427 v -2.8857 c 0,-1.15005 0.81844,-3.13264 2.07432,-3.13264 0.76905,0 0.95955,0.81843 0.95955,2.00376 v 4.01458 h -0.91016 v 0.28222 h 3.06914 v -0.28222 h -0.91722 v -4.21919 c 0,-1.22766 -0.35983,-2.13076 -1.97554,-2.13076 -1.2841,0 -1.98259,1.05127 -2.30009,2.10959 v -1.96848 h -2.1872 v 0.28222 h 0.92427 v 5.92662 z" />
      <path
         id="path1108"
         d="m 206.66759,204.20459 -0.23283,-0.14817 c -0.254,0.49389 -0.68438,0.97366 -1.12888,0.97366 -0.40216,0 -0.55033,-0.18344 -0.55033,-0.88899 v -4.96707 h 1.50988 v -0.28222 h -1.50988 v -1.83443 c -0.28222,0.21166 -0.84666,0.42333 -1.26999,0.42333 v 1.4111 h -0.94544 v 0.28222 h 0.94544 v 4.64252 c 0,0.7761 0.21167,1.6651 1.36877,1.6651 0.89605,0 1.43932,-0.51506 1.81326,-1.27705 z" />
      <path
         id="path1110"
         d="m 213.63841,203.54137 h -0.3175 c -0.35277,0.97366 -1.15005,1.67921 -2.41298,1.67921 -1.46754,0 -1.82737,-1.4746 -1.82737,-3.08325 0,-0.16228 0,-0.3175 0.007,-0.47272 h 4.44497 c 0,-1.5381 -0.73378,-2.91392 -2.78693,-2.91392 -1.81326,0 -3.11147,1.26999 -3.11147,3.38664 0,2.11665 1.40404,3.38664 3.19614,3.38664 1.53104,0 2.4412,-0.84666 2.80809,-1.9826 z m -2.89276,-4.50846 c 1.18533,0 1.29116,1.4111 1.29116,2.34948 h -2.92803 c 0.0988,-1.29116 0.50094,-2.34948 1.63687,-2.34948 z" />
      <path
         id="path1112"
         d="m 214.37215,205.10064 v 0.28222 h 3.11148 v -0.28222 h -0.92427 v -2.8857 c 0,-1.15005 0.81844,-3.13264 2.07431,-3.13264 0.76905,0 0.95955,0.81843 0.95955,2.00376 v 4.01458 h -0.91016 v 0.28222 h 3.06915 v -0.28222 h -0.91722 v -4.21919 c 0,-1.22766 -0.35983,-2.13076 -1.97554,-2.13076 -1.2841,0 -1.98259,1.05127 -2.30009,2.10959 v -1.96848 h -2.18721 v 0.28222 h 0.92427 v 5.92662 z" />
      <path
         id="path1114"
         d="m 226.07721,201.73516 c -2.07431,0 -3.12558,0.83255 -3.12558,2.05316 0,1.06538 0.78316,1.73565 1.95437,1.73565 1.03716,0 1.77093,-0.508 2.11665,-1.38288 v 0.15522 c 0,0.90311 0.56444,1.22766 1.22766,1.22766 0.57149,0 1.05832,-0.29633 1.3476,-0.73377 l -0.21167,-0.16228 c -0.21166,0.29633 -0.49388,0.46566 -0.69849,0.46566 -0.3175,0 -0.42333,-0.18344 -0.42333,-0.50094 V 201.079 c 0,-1.14299 -0.24694,-2.30009 -2.27187,-2.30009 -1.2841,0 -2.54704,0.56444 -2.54704,1.43932 0,0.508 0.33161,0.77611 0.75494,0.77611 0.36689,0 0.81138,-0.23989 0.81138,-0.80433 0,-0.381 -0.32455,-0.70555 -0.8396,-0.64205 0.29633,-0.23283 0.93838,-0.47272 1.57338,-0.47272 1.12888,0 1.27704,1.02305 1.27704,2.00376 v 0.65616 z m -0.68438,3.33726 c -0.69144,0 -1.05127,-0.55739 -1.05127,-1.37583 0,-0.88899 0.5715,-1.68626 1.73565,-1.68626 h 0.94544 v 0.78316 c 0,1.55927 -0.8396,2.27893 -1.62982,2.27893 z" />
      <path
         id="path1116"
         d="m 230.31049,205.10064 v 0.28222 h 3.11148 v -0.28222 h -0.92427 v -2.8857 c 0,-1.15005 0.81844,-3.13264 2.07431,-3.13264 0.76905,0 0.95955,0.81843 0.95955,2.00376 v 4.01458 h -0.91016 v 0.28222 h 3.06915 v -0.28222 h -0.91722 v -4.21919 c 0,-1.22766 -0.35983,-2.13076 -1.97554,-2.13076 -1.2841,0 -1.9826,1.05127 -2.30009,2.10959 v -1.96848 h -2.18721 v 0.28222 h 0.92427 v 5.92662 z" />
      <path
         id="path1118"
         d="m 243.64537,199.90073 c -0.0847,-0.0564 -0.24695,-0.10583 -0.45156,-0.10583 -0.3316,0 -0.66321,0.24694 -0.66321,0.68439 0,0.56444 0.45155,0.79021 0.80432,0.79021 0.42333,0 0.79022,-0.29633 0.79022,-0.8396 0,-0.85372 -0.9031,-1.67921 -2.34243,-1.67921 -2.13076,0 -3.2808,1.55221 -3.2808,3.38664 0,2.11665 1.36876,3.38664 3.21731,3.38664 1.42521,0 2.16603,-0.84666 2.53292,-1.9826 h -0.28928 c -0.38099,0.95955 -1.00188,1.65099 -2.15192,1.65099 -1.44638,0 -1.83443,-1.44638 -1.83443,-3.05503 0,-1.32644 0.31749,-3.09031 1.94026,-3.09031 0.83255,0 1.48165,0.35983 1.7286,0.85371 z" />
      <path
         id="path1120"
         d="m 251.70272,203.54137 h -0.31749 c -0.35278,0.97366 -1.15005,1.67921 -2.41298,1.67921 -1.46755,0 -1.82738,-1.4746 -1.82738,-3.08325 0,-0.16228 0,-0.3175 0.007,-0.47272 h 4.44496 c 0,-1.5381 -0.73377,-2.91392 -2.78692,-2.91392 -1.81326,0 -3.11148,1.26999 -3.11148,3.38664 0,2.11665 1.40405,3.38664 3.19615,3.38664 1.53104,0 2.4412,-0.84666 2.80808,-1.9826 z m -2.89275,-4.50846 c 1.18532,0 1.29116,1.4111 1.29116,2.34948 h -2.92804 c 0.0988,-1.29116 0.50094,-2.34948 1.63688,-2.34948 z" />
    </g>
  </g>
</svg>
