<?xml version="1.0" encoding="UTF-8"?>
<!-- Created with Inkscape (http://www.inkscape.org/) -->
<svg width="267.69mm" height="119.77mm" version="1.1" viewBox="0 0 267.69 119.77" xmlns="http://www.w3.org/2000/svg">
 <g transform="translate(-49.311 -92.262)" fill="#fff">
  <g stroke-width=".26458">
   <circle cx="79.385" cy="135.12" r="5.1179"/>
   <circle cx="151.03" cy="144.37" r="1.5053"/>
   <circle cx="123.23" cy="143.06" r="9.4331"/>
   <circle cx="71.952" cy="138.75" r="1.9067"/>
   <circle cx="112.22" cy="115.61" r="1.8063"/>
   <circle cx="145.16" cy="117.15" r="2.9102"/>
   <circle cx="109.68" cy="139.75" r="3.9137"/>
  </g>
  <circle cx="124.21" cy="106.56" r="2.8463" stroke-width="1.2508"/>
  <g stroke-width=".26458">
   <circle cx="126.47" cy="123.2" r="3.412"/>
   <circle cx="115.12" cy="179.26" r="2.2077"/>
   <circle cx="112.59" cy="154.5" r="6.0211"/>
   <circle cx="116.43" cy="104.27" r="4.1144"/>
   <circle cx="122.09" cy="175.27" r="2.1074"/>
   <circle cx="150.09" cy="124.14" r="2.1074"/>
   <circle cx="65.84" cy="127.34" r="2.4084"/>
   <circle cx="68.912" cy="143.57" r="2.3081"/>
  </g>
  <ellipse cx="115.24" cy="171.1" rx="4.8169" ry="4.9172" stroke-width=".61103"/>
  <g stroke-width=".26458">
   <circle cx="64.918" cy="137.13" r="4.1144"/>
   <circle cx="131.54" cy="97.681" r="5.419"/>
   <circle cx="120.04" cy="121.49" r="1.9067"/>
   <circle cx="139.7" cy="120.76" r="1.9067"/>
   <circle cx="105.57" cy="169.35" r="1.0035"/>
   <circle cx="133.47" cy="151.9" r="3.2113"/>
   <circle cx="104.81" cy="174.89" r="3.8134"/>
   <circle cx="143.4" cy="135.53" r="6.9243"/>
  </g>
  <g stroke-width=".26458">
   <circle cx="121.88" cy="185.26" r="4.1044"/>
   <circle cx="157.02" cy="117" r="3.405"/>
   <circle cx="53.142" cy="130.86" r="3.8307"/>
   <circle cx="104.99" cy="119.65" r="5.4268"/>
   <circle cx="114.92" cy="135.05" r="1.0641"/>
   <circle cx="122.81" cy="168.68" r="1.5961"/>
  </g>
 </g>
 <g transform="translate(-49.311 -92.262)">
  <g fill="#520"></g>
  <g transform="translate(13.838 2.6363)" fill="#28170b">
   <g stroke-width=".11388">
    <path d="m78.829 209.28c-0.56373-0.0539-2.3574-0.25664-3.986-0.45056-1.6345-0.19461-3.8612-0.38057-4.9705-0.41508l-2.0095-0.0625 0.48802-0.66293c1.3807-1.8756 1.9873-5.1678 1.8339-9.9533-0.08221-2.565-0.22714-4.3998-0.80059-10.136-0.54255-5.4268-0.6764-7.8275-0.52634-9.44 0.15683-1.6852 0.29608-2.1022 1.0882-3.2582 2.3296-3.3998 2.6404-6.6448 0.98702-10.307-0.25453-0.56373-0.944-1.9731-1.5322-3.1318-1.6486-3.2481-2.0363-4.4178-2.3023-6.9465-0.34364-3.2669-1.7051-5.8538-5.1458-9.7772l-0.93349-1.0644 0.43692-0.41605c0.63758-0.60713 0.73056-1.0769 0.64583-3.2632-0.10801-2.7867-0.17168-5.399-0.12074-4.954 0.24344 2.1271 0.30514 3.0334 0.32803 4.8193 0.02201 1.7164 0.06906 2.2267 0.27493 2.9818 0.36191 1.3275 1.0085 2.5333 2.2901 4.2707 0.62378 0.8456 1.348 1.9218 1.6093 2.3916 0.26134 0.46977 0.7476 1.3154 1.0806 1.8791 0.85435 1.4465 0.98773 1.8134 0.98336 2.7048-0.0024 0.50753 0.0409 0.76858 0.12771 0.7683 0.07231-2.3e-4 0.30297-0.3321 0.51258-0.73747 0.56805-1.0986 1.469-1.8682 3.6024-3.0772 2.0979-1.189 2.745-1.7402 4.134-3.5218 0.5409-0.69378 1.2741-1.5945 1.6293-2.0017 1.0907-1.2501 1.217-1.6434 1.3539-4.2137 0.05504-1.0335 0.16596-2.0841 0.24649-2.3346 0.09132-0.28414 0.39388-0.7003 0.80411-1.106 0.48111-0.47583 0.69039-0.78161 0.77945-1.1388 0.06697-0.26861 0.15166-1.7311 0.1882-3.2501l0.06645-2.7617h0.61098l0.12182 2.5532c0.067 1.4043 0.15724 2.6105 0.20054 2.6806 0.04949 0.0801 0.34101-0.11743 0.78488-0.53175 1.3213-1.2333 2.6958-2.3105 2.9483-2.3105 0.04946 0-0.18358 0.2735-0.51786 0.60779-0.63695 0.63694-1.522 1.8935-1.6312 2.316-0.0414 0.16017-0.33388 0.3893-0.82905 0.64951-0.68184 0.3583-0.79496 0.46768-1.0396 1.0053-0.151 0.33177-0.4415 0.74686-0.64556 0.92242-0.62355 0.53644-0.6836 1.1771-0.27427 2.9265 0.06595 0.28186 0.12116 0.70163 0.12269 0.93282 0.0016 0.23119 0.04933 0.44912 0.10622 0.48427 0.05689 0.0352 0.45406-0.13789 0.88261-0.38456 2.2816-1.3133 4.3308-1.7259 6.5873-1.3265 2.2066 0.39058 6.234 1.5574 6.0412 1.7502-0.10364 0.10363-1.8589-0.35389-2.6083-0.67988-0.42945-0.18682-1.1061-0.3903-1.5036-0.45218-1.0125-0.15764-4.8596 0.0397-5.4244 0.27821-0.51988 0.21955-1.353 0.97523-1.9211 1.7426-0.33099 0.44705-0.69916 0.73721-1.6086 1.2677-1.2977 0.75697-2.9018 1.9182-4.4776 3.2415-1.1412 0.95832-5.6335 5.2392-5.7885 5.5161-0.05445 0.0973-0.09992 1.0821-0.10105 2.1885-4e-3 3.9255 0.42738 5.2928 3.5567 11.273 0.24052 0.45965 0.25365 0.59195 0.1977 1.993-0.07742 1.939-0.39141 3.2806-1.062 4.5375-1.177 2.206-1.3303 2.5813-1.3888 3.3985-0.0667 0.93217 0.06994 1.537 0.62768 2.7787 0.22772 0.50695 0.42626 0.93938 0.4412 0.96096 0.01495 0.0216 0.43419-0.12318 0.93166-0.3217 1.0639-0.42454 1.1962-0.55226 3.011-2.9063 0.98766-1.2811 1.536-1.8791 2.193-2.3916 2.9495-2.3005 6.4782-4.1654 10.991-5.8084 1.8053-0.65732 4.1933-1.3677 4.286-1.2751 0.10606 0.10606-1.9083 1.1345-4.7416 2.4209-3.3629 1.5268-4.1712 1.9314-5.499 2.7528-2.4884 1.5393-3.7174 2.877-5.4687 5.9527-0.16049 0.28186-0.89147 1.2556-1.6244 2.1638-2.5144 3.1158-3.2374 4.2194-3.7683 5.7512-0.30228 0.87232-0.31565 1.0031-0.31416 3.0749 0.0011 1.5876 0.05639 2.4658 0.2075 3.2981 0.5348 2.9453 1.6216 5.7926 3.2186 8.4321 1.5641 2.585 3.9718 5.1329 6.0092 6.3591l0.67586 0.40674-0.30725 0.11682c-0.89206 0.33916-3.1572 0.43205-5.3721 0.2203z"/>
    <path d="m99.067 149.62c-0.9929-0.35277-2.3791-1.1456-3.3071-1.8914-0.97848-0.78644-3.0476-2.8585-2.951-2.9552 0.16147-0.16147 3.9187 2.3646 5.9648 4.0103 1.4455 1.1626 1.4787 1.2575 0.29331 0.83631z"/>
    <path d="m114.42 131.44c-1.6937-0.25545-3.0502-0.92408-4.2028-2.0717-0.76454-0.76116-0.87612-0.83345-1.1958-0.77466-0.19391 0.0357-0.89491 0.1661-1.5578 0.28985-1.5168 0.28319-3.4992 0.51042-7.0514 0.80827-2.8164 0.23615-5.6255 0.53045-6.1498 0.6443-0.15659 0.034 0.25339-0.24239 0.91108-0.61421 1.6251-0.91876 2.5229-1.5038 5.1428-3.3515 2.4721-1.7434 4.1441-2.7986 5.5723-3.5167 1.0311-0.51844 2.9332-1.2731 3.0813-1.2226 0.0513 0.0175-0.40546 0.32816-1.015 0.69038-0.60951 0.36222-2.0307 1.308-3.1581 2.1018-2.8452 2.0032-4.4444 3.0104-5.8831 3.7053-0.67773 0.32735-1.2328 0.65691-1.2335 0.73237-0.0021 0.23808 0.73447 0.29039 3.2783 0.2328 1.9228-0.0435 2.7484-0.11165 3.7182-0.30679 1.6443-0.33089 3.5584-0.96797 5.3056-1.7659 0.78089-0.35664 1.4963-0.68059 1.5898-0.71989 0.0935-0.0393 8e-3 0.13275-0.18945 0.38234-0.19767 0.24959-0.44918 0.64205-0.5589 0.87213-0.1982 0.41563-0.19752 0.42116 0.1056 0.85856 0.34824 0.5025 0.88525 0.83438 1.7717 1.0949 0.33858 0.0995 0.88007 0.33019 1.2033 0.51262 1.0204 0.57589 1.3658 0.63261 2.5785 0.4234 0.58799-0.10143 1.7905-0.26045 2.6722-0.35336 0.88174-0.0929 2.3423-0.34648 3.2457-0.56348s1.9757-0.44796 2.3828-0.51325c0.86518-0.13874 2.6194-0.16031 2.6194-0.0322 0 0.0485-0.42279 0.17546-0.93955 0.28208-0.51675 0.10662-1.9488 0.47669-3.1823 0.82237-2.795 0.78327-3.8122 1.0207-5.3452 1.2476-1.1013 0.16298-2.7963 0.21368-3.5158 0.10517z"/>
    <path d="m113.96 125.01c0.3445-0.19018 1.2781-0.68868 2.0746-1.1078l1.4482-0.76199 0.55717 0.54878c0.34097 0.33585 0.71072 0.58343 0.9529 0.63805 0.57817 0.13039 1.6699-0.0529 2.7146-0.45581 0.99552-0.38391 1.2507-0.56613 2.9242-2.0881 1.2264-1.1154 2.0037-1.6579 2.8574-1.9944 0.66302-0.26134 2.135-0.57951 2.6662-0.57629 0.3121 2e-3 0.19637 0.0792-0.69063 0.46165-1.8619 0.8027-3.0758 1.6362-4.9435 3.3945-0.59551 0.56062-1.2398 1.1005-1.4318 1.1998-0.76621 0.39623-1.7695 0.5261-4.9157 0.63633-1.9678 0.069-3.4281 0.17394-3.929 0.28248-0.43843 0.095-0.8228 0.17182-0.85413 0.17069-0.0314-1e-3 0.22487-0.15767 0.56938-0.34785z"/>
    <path d="m82.093 129.68c0.0456-0.57077 0.10555-1.0604 0.13321-1.0881 0.06012-0.0601 0.2627 0.82892 0.36114 1.5849 0.06967 0.53504 0.0669 0.54095-0.25341 0.54095h-0.32385z"/>
    <path d="m83.441 125.16c0-0.18732 1.3699-1.5421 1.9761-1.9543 0.98697-0.6711 2.5143-1.357 4.5775-2.0557 2.9679-1.0051 2.9494-0.903-0.07353 0.40545-2.9367 1.2711-4.5958 2.2007-6.1099 3.4233-0.20357 0.16438-0.37013 0.24593-0.37013 0.18122z"/>
    <path d="m59.423 141.86c-1.0792-1.2458-2.4541-3.0521-2.3799-3.1264 0.1016-0.10159 1.3795 0.90767 1.941 1.533 0.55997 0.62359 1.3995 2.1603 1.3164 2.4096-0.02606 0.0782-0.42091-0.28913-0.87747-0.8162z"/>
    <path d="m96.636 117.59c0.87994-1.1786 1.4765-2.4712 1.9447-4.2138l0.22183-0.82563 0.0052 0.74025c0.01138 1.6133-0.60867 3.1263-1.7381 4.241-0.36562 0.36085-0.71321 0.65609-0.77241 0.65609-0.0592 0 0.09324-0.26905 0.33876-0.59789z"/>
   </g>
   <path d="m97.576 143.27c-1.0593-0.0632-1.5033-0.10914-2.2388-0.23156-0.94028-0.15651-2.1571-0.45718-2.3396-0.57814-0.04437-0.0294-0.16236-0.0969-0.2622-0.15003-0.09984-0.0531-0.17048-0.0968-0.15699-0.097 0.01349-2.1e-4 0.1451 0.0483 0.29245 0.10786 0.77955 0.31494 2.1142 0.67807 2.4931 0.6783 0.09058 5e-5 0.10633-5e-3 0.10071-0.0345-0.0037-0.019-0.03744-0.0553-0.07505-0.0807-0.03762-0.0254-0.06241-0.0461-0.0551-0.0461 0.0073 0 0.11628 0.0312 0.24215 0.0694 0.50564 0.15327 1.0005 0.22874 1.6162 0.24647 0.70063 0.0202 1.2728-0.0312 2.622-0.23555 0.92186-0.13962 1.1589-0.17138 1.5801-0.21173 0.32071-0.0307 1.1207-0.0375 1.3444-0.0114 0.13692 0.016 0.14963 0.01-0.19161 0.0933-0.83981 0.20539-1.8631 0.36249-2.8919 0.44398-0.35834 0.0284-1.7976 0.0543-2.0798 0.0375z" stroke-width=".020169"/>
  </g>
  <g fill="#72b200">
   <g stroke-width=".26458">
    <circle cx="79.385" cy="135.12" r="5.1179" opacity=".62"/>
    <circle cx="151.03" cy="144.37" r="1.5053" opacity=".62"/>
    <circle cx="123.23" cy="143.06" r="9.4331" opacity=".62"/>
    <circle cx="71.952" cy="138.75" r="1.9067" opacity=".62"/>
    <circle cx="112.22" cy="115.61" r="1.8063" opacity=".62"/>
    <circle cx="145.16" cy="117.15" r="2.9102" opacity=".62"/>
    <circle cx="109.68" cy="139.75" r="3.9137" opacity=".62"/>
   </g>
   <circle cx="124.21" cy="106.56" r="2.8463" opacity=".62" stroke-width="1.2508"/>
   <circle cx="126.47" cy="123.2" r="3.412" opacity=".62" stroke-width=".26458"/>
   <circle cx="115.12" cy="179.26" r="2.2077" opacity=".62" stroke-width=".26458"/>
  </g>
  <g fill="#aad400">
   <g stroke-width=".26458">
    <circle cx="112.59" cy="154.5" r="6.0211" opacity=".7"/>
    <circle cx="116.43" cy="104.27" r="4.1144" opacity=".7"/>
    <circle cx="122.09" cy="175.27" r="2.1074" opacity=".7"/>
    <circle cx="150.09" cy="124.14" r="2.1074" opacity=".7"/>
    <circle cx="65.84" cy="127.34" r="2.4084" opacity=".7"/>
    <circle cx="68.912" cy="143.57" r="2.3081" opacity=".7"/>
   </g>
   <ellipse cx="115.24" cy="171.1" rx="4.8169" ry="4.9172" opacity=".7" stroke-width=".61103"/>
  </g>
  <g fill="#bcd35f" stroke-width=".26458">
   <circle cx="64.918" cy="137.13" r="4.1144" opacity=".7"/>
   <circle cx="131.54" cy="97.681" r="5.419" opacity=".7"/>
   <circle cx="120.04" cy="121.49" r="1.9067" opacity=".7"/>
   <circle cx="139.7" cy="120.76" r="1.9067" opacity=".7"/>
   <circle cx="105.57" cy="169.35" r="1.0035" opacity=".7"/>
   <circle cx="133.47" cy="151.9" r="3.2113" opacity=".7"/>
   <circle cx="104.81" cy="174.89" r="3.8134" opacity=".7"/>
   <circle cx="143.4" cy="135.53" r="6.9243" opacity=".7"/>
  </g>
  <g fill="#338000" stroke-width=".26458">
   <circle cx="121.88" cy="185.26" r="4.1044" opacity=".7"/>
   <circle cx="157.02" cy="117" r="3.405" opacity=".7"/>
   <circle cx="53.142" cy="130.86" r="3.8307" opacity=".7"/>
   <circle cx="104.99" cy="119.65" r="5.4268" opacity=".7"/>
   <circle cx="114.92" cy="135.05" r="1.0641" opacity=".7"/>
   <circle cx="122.81" cy="168.68" r="1.5961" opacity=".7"/>
  </g>
  <text x="171.6216" y="117.61847" fill="#383838" font-family="'Bodoni* 11'" font-size="22.578px" font-style="italic" font-weight="bold" letter-spacing="0px" stroke-width=".26458" word-spacing="0px" style="line-height:1.25" xml:space="preserve"><tspan x="171.6216" y="117.61847">Replenish</tspan><tspan x="171.6216" y="145.8407">Landscaping</tspan></text>
  <text x="170.21893" y="168.78531" fill="#70a64c" font-family="'Bodoni* 11'" font-size="14.111px" letter-spacing="0px" stroke-width=".26458" word-spacing="0px" style="line-height:1.25" xml:space="preserve"><tspan x="170.21893" y="168.78531">Construction,</tspan><tspan x="170.21893" y="187.08408">Design &amp;</tspan><tspan x="170.21893" y="205.38286">Maintenance</tspan></text>
 </g>
</svg>
