<?xml version="1.0" encoding="UTF-8" standalone="no"?>
<svg
   xmlns:dc="http://purl.org/dc/elements/1.1/"
   xmlns:cc="http://creativecommons.org/ns#"
   xmlns:rdf="http://www.w3.org/1999/02/22-rdf-syntax-ns#"
   xmlns:svg="http://www.w3.org/2000/svg"
   xmlns="http://www.w3.org/2000/svg"
   xmlns:sodipodi="http://sodipodi.sourceforge.net/DTD/sodipodi-0.dtd"
   xmlns:inkscape="http://www.inkscape.org/namespaces/inkscape"
   inkscape:version="1.0 (4035a4fb49, 2020-05-01)"
   sodipodi:docname="logo1-web.svg"
   id="svg182"
   viewBox="0 0 396.06 119.77"
   version="1.1"
   height="119.77mm"
   width="396.06mm">
  <defs
     id="defs186" />
  <sodipodi:namedview
     inkscape:current-layer="g178"
     inkscape:window-maximized="1"
     inkscape:window-y="0"
     inkscape:window-x="0"
     inkscape:cy="226.337"
     inkscape:cx="748.45984"
     inkscape:zoom="0.83705226"
     showgrid="false"
     id="namedview184"
     inkscape:window-height="1043"
     inkscape:window-width="1920"
     inkscape:pageshadow="2"
     inkscape:pageopacity="0"
     guidetolerance="10"
     gridtolerance="10"
     objecttolerance="10"
     borderopacity="1"
     bordercolor="#666666"
     pagecolor="#ffffff" />
  <metadata
     id="metadata2">
    <rdf:RDF>
      <cc:Work
         rdf:about="">
        <dc:format>image/svg+xml</dc:format>
        <dc:type
           rdf:resource="http://purl.org/dc/dcmitype/StillImage" />
        <dc:title />
      </cc:Work>
    </rdf:RDF>
  </metadata>
  <g
     id="g74"
     fill="#fff"
     transform="translate(-49.311 -92.262)">
    <g
       id="g18"
       stroke-width=".26458">
      <circle
         id="circle4"
         r="5.1179"
         cy="135.12"
         cx="79.385" />
      <circle
         id="circle6"
         r="1.5053"
         cy="144.37"
         cx="151.03" />
      <circle
         id="circle8"
         r="9.4331"
         cy="143.06"
         cx="123.23" />
      <circle
         id="circle10"
         r="1.9067"
         cy="138.75"
         cx="71.952" />
      <circle
         id="circle12"
         r="1.8063"
         cy="115.61"
         cx="112.22" />
      <circle
         id="circle14"
         r="2.9102"
         cy="117.15"
         cx="145.16" />
      <circle
         id="circle16"
         r="3.9137"
         cy="139.75"
         cx="109.68" />
    </g>
    <circle
       id="circle20"
       stroke-width="1.2508"
       r="2.8463"
       cy="106.56"
       cx="124.21" />
    <g
       id="g38"
       stroke-width=".26458">
      <circle
         id="circle22"
         r="3.412"
         cy="123.2"
         cx="126.47" />
      <circle
         id="circle24"
         r="2.2077"
         cy="179.26"
         cx="115.12" />
      <circle
         id="circle26"
         r="6.0211"
         cy="154.5"
         cx="112.59" />
      <circle
         id="circle28"
         r="4.1144"
         cy="104.27"
         cx="116.43" />
      <circle
         id="circle30"
         r="2.1074"
         cy="175.27"
         cx="122.09" />
      <circle
         id="circle32"
         r="2.1074"
         cy="124.14"
         cx="150.09" />
      <circle
         id="circle34"
         r="2.4084"
         cy="127.34"
         cx="65.84" />
      <circle
         id="circle36"
         r="2.3081"
         cy="143.57"
         cx="68.912" />
    </g>
    <ellipse
       id="ellipse40"
       stroke-width=".61103"
       ry="4.9172"
       rx="4.8169"
       cy="171.1"
       cx="115.24" />
    <g
       id="g58"
       stroke-width=".26458">
      <circle
         id="circle42"
         r="4.1144"
         cy="137.13"
         cx="64.918" />
      <circle
         id="circle44"
         r="5.419"
         cy="97.681"
         cx="131.54" />
      <circle
         id="circle46"
         r="1.9067"
         cy="121.49"
         cx="120.04" />
      <circle
         id="circle48"
         r="1.9067"
         cy="120.76"
         cx="139.7" />
      <circle
         id="circle50"
         r="1.0035"
         cy="169.35"
         cx="105.57" />
      <circle
         id="circle52"
         r="3.2113"
         cy="151.9"
         cx="133.47" />
      <circle
         id="circle54"
         r="3.8134"
         cy="174.89"
         cx="104.81" />
      <circle
         id="circle56"
         r="6.9243"
         cy="135.53"
         cx="143.4" />
    </g>
    <g
       id="g72"
       stroke-width=".26458">
      <circle
         id="circle60"
         r="4.1044"
         cy="185.26"
         cx="121.88" />
      <circle
         id="circle62"
         r="3.405"
         cy="117"
         cx="157.02" />
      <circle
         id="circle64"
         r="3.8307"
         cy="130.86"
         cx="53.142" />
      <circle
         id="circle66"
         r="5.4268"
         cy="119.65"
         cx="104.99" />
      <circle
         id="circle68"
         r="1.0641"
         cy="135.05"
         cx="114.92" />
      <circle
         id="circle70"
         r="1.5961"
         cy="168.68"
         cx="122.81" />
    </g>
  </g>
  <g
     id="g180"
     transform="translate(-49.311 -92.262)">
    <g
       id="g96"
       fill="#28170b"
       transform="translate(13.838 2.6363)">
      <g
         id="g92"
         stroke-width=".11388">
        <path
           id="path76"
           d="m78.829 209.28c-0.56373-0.0539-2.3574-0.25664-3.986-0.45056-1.6345-0.19461-3.8612-0.38057-4.9705-0.41508l-2.0095-0.0625 0.48802-0.66293c1.3807-1.8756 1.9873-5.1678 1.8339-9.9533-0.08221-2.565-0.22714-4.3998-0.80059-10.136-0.54255-5.4268-0.6764-7.8275-0.52634-9.44 0.15683-1.6852 0.29608-2.1022 1.0882-3.2582 2.3296-3.3998 2.6404-6.6448 0.98702-10.307-0.25453-0.56373-0.944-1.9731-1.5322-3.1318-1.6486-3.2481-2.0363-4.4178-2.3023-6.9465-0.34364-3.2669-1.7051-5.8538-5.1458-9.7772l-0.93349-1.0644 0.43692-0.41605c0.63758-0.60713 0.73056-1.0769 0.64583-3.2632-0.10801-2.7867-0.17168-5.399-0.12074-4.954 0.24344 2.1271 0.30514 3.0334 0.32803 4.8193 0.02201 1.7164 0.06906 2.2267 0.27493 2.9818 0.36191 1.3275 1.0085 2.5333 2.2901 4.2707 0.62378 0.8456 1.348 1.9218 1.6093 2.3916 0.26134 0.46977 0.7476 1.3154 1.0806 1.8791 0.85435 1.4465 0.98773 1.8134 0.98336 2.7048-0.0024 0.50753 0.0409 0.76858 0.12771 0.7683 0.07231-2.3e-4 0.30297-0.3321 0.51258-0.73747 0.56805-1.0986 1.469-1.8682 3.6024-3.0772 2.0979-1.189 2.745-1.7402 4.134-3.5218 0.5409-0.69378 1.2741-1.5945 1.6293-2.0017 1.0907-1.2501 1.217-1.6434 1.3539-4.2137 0.05504-1.0335 0.16596-2.0841 0.24649-2.3346 0.09132-0.28414 0.39388-0.7003 0.80411-1.106 0.48111-0.47583 0.69039-0.78161 0.77945-1.1388 0.06697-0.26861 0.15166-1.7311 0.1882-3.2501l0.06645-2.7617h0.61098l0.12182 2.5532c0.067 1.4043 0.15724 2.6105 0.20054 2.6806 0.04949 0.0801 0.34101-0.11743 0.78488-0.53175 1.3213-1.2333 2.6958-2.3105 2.9483-2.3105 0.04946 0-0.18358 0.2735-0.51786 0.60779-0.63695 0.63694-1.522 1.8935-1.6312 2.316-0.0414 0.16017-0.33388 0.3893-0.82905 0.64951-0.68184 0.3583-0.79496 0.46768-1.0396 1.0053-0.151 0.33177-0.4415 0.74686-0.64556 0.92242-0.62355 0.53644-0.6836 1.1771-0.27427 2.9265 0.06595 0.28186 0.12116 0.70163 0.12269 0.93282 0.0016 0.23119 0.04933 0.44912 0.10622 0.48427 0.05689 0.0352 0.45406-0.13789 0.88261-0.38456 2.2816-1.3133 4.3308-1.7259 6.5873-1.3265 2.2066 0.39058 6.234 1.5574 6.0412 1.7502-0.10364 0.10363-1.8589-0.35389-2.6083-0.67988-0.42945-0.18682-1.1061-0.3903-1.5036-0.45218-1.0125-0.15764-4.8596 0.0397-5.4244 0.27821-0.51988 0.21955-1.353 0.97523-1.9211 1.7426-0.33099 0.44705-0.69916 0.73721-1.6086 1.2677-1.2977 0.75697-2.9018 1.9182-4.4776 3.2415-1.1412 0.95832-5.6335 5.2392-5.7885 5.5161-0.05445 0.0973-0.09992 1.0821-0.10105 2.1885-4e-3 3.9255 0.42738 5.2928 3.5567 11.273 0.24052 0.45965 0.25365 0.59195 0.1977 1.993-0.07742 1.939-0.39141 3.2806-1.062 4.5375-1.177 2.206-1.3303 2.5813-1.3888 3.3985-0.0667 0.93217 0.06994 1.537 0.62768 2.7787 0.22772 0.50695 0.42626 0.93938 0.4412 0.96096 0.01495 0.0216 0.43419-0.12318 0.93166-0.3217 1.0639-0.42454 1.1962-0.55226 3.011-2.9063 0.98766-1.2811 1.536-1.8791 2.193-2.3916 2.9495-2.3005 6.4782-4.1654 10.991-5.8084 1.8053-0.65732 4.1933-1.3677 4.286-1.2751 0.10606 0.10606-1.9083 1.1345-4.7416 2.4209-3.3629 1.5268-4.1712 1.9314-5.499 2.7528-2.4884 1.5393-3.7174 2.877-5.4687 5.9527-0.16049 0.28186-0.89147 1.2556-1.6244 2.1638-2.5144 3.1158-3.2374 4.2194-3.7683 5.7512-0.30228 0.87232-0.31565 1.0031-0.31416 3.0749 0.0011 1.5876 0.05639 2.4658 0.2075 3.2981 0.5348 2.9453 1.6216 5.7926 3.2186 8.4321 1.5641 2.585 3.9718 5.1329 6.0092 6.3591l0.67586 0.40674-0.30725 0.11682c-0.89206 0.33916-3.1572 0.43205-5.3721 0.2203z" />
        <path
           id="path78"
           d="m99.067 149.62c-0.9929-0.35277-2.3791-1.1456-3.3071-1.8914-0.97848-0.78644-3.0476-2.8585-2.951-2.9552 0.16147-0.16147 3.9187 2.3646 5.9648 4.0103 1.4455 1.1626 1.4787 1.2575 0.29331 0.83631z" />
        <path
           id="path80"
           d="m114.42 131.44c-1.6937-0.25545-3.0502-0.92408-4.2028-2.0717-0.76454-0.76116-0.87612-0.83345-1.1958-0.77466-0.19391 0.0357-0.89491 0.1661-1.5578 0.28985-1.5168 0.28319-3.4992 0.51042-7.0514 0.80827-2.8164 0.23615-5.6255 0.53045-6.1498 0.6443-0.15659 0.034 0.25339-0.24239 0.91108-0.61421 1.6251-0.91876 2.5229-1.5038 5.1428-3.3515 2.4721-1.7434 4.1441-2.7986 5.5723-3.5167 1.0311-0.51844 2.9332-1.2731 3.0813-1.2226 0.0513 0.0175-0.40546 0.32816-1.015 0.69038-0.60951 0.36222-2.0307 1.308-3.1581 2.1018-2.8452 2.0032-4.4444 3.0104-5.8831 3.7053-0.67773 0.32735-1.2328 0.65691-1.2335 0.73237-0.0021 0.23808 0.73447 0.29039 3.2783 0.2328 1.9228-0.0435 2.7484-0.11165 3.7182-0.30679 1.6443-0.33089 3.5584-0.96797 5.3056-1.7659 0.78089-0.35664 1.4963-0.68059 1.5898-0.71989s8e-3 0.13275-0.18945 0.38234c-0.19767 0.24959-0.44918 0.64205-0.5589 0.87213-0.1982 0.41563-0.19752 0.42116 0.1056 0.85856 0.34824 0.5025 0.88525 0.83438 1.7717 1.0949 0.33858 0.0995 0.88007 0.33019 1.2033 0.51262 1.0204 0.57589 1.3658 0.63261 2.5785 0.4234 0.58799-0.10143 1.7905-0.26045 2.6722-0.35336 0.88174-0.0929 2.3423-0.34648 3.2457-0.56348s1.9757-0.44796 2.3828-0.51325c0.86518-0.13874 2.6194-0.16031 2.6194-0.0322 0 0.0485-0.42279 0.17546-0.93955 0.28208-0.51675 0.10662-1.9488 0.47669-3.1823 0.82237-2.795 0.78327-3.8122 1.0207-5.3452 1.2476-1.1013 0.16298-2.7963 0.21368-3.5158 0.10517z" />
        <path
           id="path82"
           d="m113.96 125.01c0.3445-0.19018 1.2781-0.68868 2.0746-1.1078l1.4482-0.76199 0.55717 0.54878c0.34097 0.33585 0.71072 0.58343 0.9529 0.63805 0.57817 0.13039 1.6699-0.0529 2.7146-0.45581 0.99552-0.38391 1.2507-0.56613 2.9242-2.0881 1.2264-1.1154 2.0037-1.6579 2.8574-1.9944 0.66302-0.26134 2.135-0.57951 2.6662-0.57629 0.3121 2e-3 0.19637 0.0792-0.69063 0.46165-1.8619 0.8027-3.0758 1.6362-4.9435 3.3945-0.59551 0.56062-1.2398 1.1005-1.4318 1.1998-0.76621 0.39623-1.7695 0.5261-4.9157 0.63633-1.9678 0.069-3.4281 0.17394-3.929 0.28248-0.43843 0.095-0.8228 0.17182-0.85413 0.17069-0.0314-1e-3 0.22487-0.15767 0.56938-0.34785z" />
        <path
           id="path84"
           d="m82.093 129.68c0.0456-0.57077 0.10555-1.0604 0.13321-1.0881 0.06012-0.0601 0.2627 0.82892 0.36114 1.5849 0.06967 0.53504 0.0669 0.54095-0.25341 0.54095h-0.32385z" />
        <path
           id="path86"
           d="m83.441 125.16c0-0.18732 1.3699-1.5421 1.9761-1.9543 0.98697-0.6711 2.5143-1.357 4.5775-2.0557 2.9679-1.0051 2.9494-0.903-0.07353 0.40545-2.9367 1.2711-4.5958 2.2007-6.1099 3.4233-0.20357 0.16438-0.37013 0.24593-0.37013 0.18122z" />
        <path
           id="path88"
           d="m59.423 141.86c-1.0792-1.2458-2.4541-3.0521-2.3799-3.1264 0.1016-0.10159 1.3795 0.90767 1.941 1.533 0.55997 0.62359 1.3995 2.1603 1.3164 2.4096-0.02606 0.0782-0.42091-0.28913-0.87747-0.8162z" />
        <path
           id="path90"
           d="m96.636 117.59c0.87994-1.1786 1.4765-2.4712 1.9447-4.2138l0.22183-0.82563 0.0052 0.74025c0.01138 1.6133-0.60867 3.1263-1.7381 4.241-0.36562 0.36085-0.71321 0.65609-0.77241 0.65609s0.09324-0.26905 0.33876-0.59789z" />
      </g>
      <path
         id="path94"
         stroke-width=".020169"
         d="m97.576 143.27c-1.0593-0.0632-1.5033-0.10914-2.2388-0.23156-0.94028-0.15651-2.1571-0.45718-2.3396-0.57814-0.04437-0.0294-0.16236-0.0969-0.2622-0.15003-0.09984-0.0531-0.17048-0.0968-0.15699-0.097 0.01349-2.1e-4 0.1451 0.0483 0.29245 0.10786 0.77955 0.31494 2.1142 0.67807 2.4931 0.6783 0.09058 5e-5 0.10633-5e-3 0.10071-0.0345-0.0037-0.019-0.03744-0.0553-0.07505-0.0807-0.03762-0.0254-0.06241-0.0461-0.0551-0.0461 0.0073 0 0.11628 0.0312 0.24215 0.0694 0.50564 0.15327 1.0005 0.22874 1.6162 0.24647 0.70063 0.0202 1.2728-0.0312 2.622-0.23555 0.92186-0.13962 1.1589-0.17138 1.5801-0.21173 0.32071-0.0307 1.1207-0.0375 1.3444-0.0114 0.13692 0.016 0.14963 0.01-0.19161 0.0933-0.83981 0.20539-1.8631 0.36249-2.8919 0.44398-0.35834 0.0284-1.7976 0.0543-2.0798 0.0375z" />
    </g>
    <g
       id="g120"
       fill="#72b200">
      <g
         id="g112"
         stroke-width=".26458">
        <circle
           id="circle98"
           opacity=".62"
           r="5.1179"
           cy="135.12"
           cx="79.385" />
        <circle
           id="circle100"
           opacity=".62"
           r="1.5053"
           cy="144.37"
           cx="151.03" />
        <circle
           id="circle102"
           opacity=".62"
           r="9.4331"
           cy="143.06"
           cx="123.23" />
        <circle
           id="circle104"
           opacity=".62"
           r="1.9067"
           cy="138.75"
           cx="71.952" />
        <circle
           id="circle106"
           opacity=".62"
           r="1.8063"
           cy="115.61"
           cx="112.22" />
        <circle
           id="circle108"
           opacity=".62"
           r="2.9102"
           cy="117.15"
           cx="145.16" />
        <circle
           id="circle110"
           opacity=".62"
           r="3.9137"
           cy="139.75"
           cx="109.68" />
      </g>
      <circle
         id="circle114"
         stroke-width="1.2508"
         opacity=".62"
         r="2.8463"
         cy="106.56"
         cx="124.21" />
      <circle
         id="circle116"
         stroke-width=".26458"
         opacity=".62"
         r="3.412"
         cy="123.2"
         cx="126.47" />
      <circle
         id="circle118"
         stroke-width=".26458"
         opacity=".62"
         r="2.2077"
         cy="179.26"
         cx="115.12" />
    </g>
    <g
       id="g138"
       fill="#aad400">
      <g
         id="g134"
         stroke-width=".26458">
        <circle
           id="circle122"
           opacity=".7"
           r="6.0211"
           cy="154.5"
           cx="112.59" />
        <circle
           id="circle124"
           opacity=".7"
           r="4.1144"
           cy="104.27"
           cx="116.43" />
        <circle
           id="circle126"
           opacity=".7"
           r="2.1074"
           cy="175.27"
           cx="122.09" />
        <circle
           id="circle128"
           opacity=".7"
           r="2.1074"
           cy="124.14"
           cx="150.09" />
        <circle
           id="circle130"
           opacity=".7"
           r="2.4084"
           cy="127.34"
           cx="65.84" />
        <circle
           id="circle132"
           opacity=".7"
           r="2.3081"
           cy="143.57"
           cx="68.912" />
      </g>
      <ellipse
         id="ellipse136"
         stroke-width=".61103"
         opacity=".7"
         ry="4.9172"
         rx="4.8169"
         cy="171.1"
         cx="115.24" />
    </g>
    <g
       id="g178"
       stroke-width=".26458">
      <g
         id="g156"
         fill="#bcd35f">
        <circle
           id="circle140"
           opacity=".7"
           r="4.1144"
           cy="137.13"
           cx="64.918" />
        <circle
           id="circle142"
           opacity=".7"
           r="5.419"
           cy="97.681"
           cx="131.54" />
        <circle
           id="circle144"
           opacity=".7"
           r="1.9067"
           cy="121.49"
           cx="120.04" />
        <circle
           id="circle146"
           opacity=".7"
           r="1.9067"
           cy="120.76"
           cx="139.7" />
        <circle
           id="circle148"
           opacity=".7"
           r="1.0035"
           cy="169.35"
           cx="105.57" />
        <circle
           id="circle150"
           opacity=".7"
           r="3.2113"
           cy="151.9"
           cx="133.47" />
        <circle
           id="circle152"
           opacity=".7"
           r="3.8134"
           cy="174.89"
           cx="104.81" />
        <circle
           id="circle154"
           opacity=".7"
           r="6.9243"
           cy="135.53"
           cx="143.4" />
      </g>
      <g
         id="g170"
         fill="#338000">
        <circle
           id="circle158"
           opacity=".7"
           r="4.1044"
           cy="185.26"
           cx="121.88" />
        <circle
           id="circle160"
           opacity=".7"
           r="3.405"
           cy="117"
           cx="157.02" />
        <circle
           id="circle162"
           opacity=".7"
           r="3.8307"
           cy="130.86"
           cx="53.142" />
        <circle
           id="circle164"
           opacity=".7"
           r="5.4268"
           cy="119.65"
           cx="104.99" />
        <circle
           id="circle166"
           opacity=".7"
           r="1.0641"
           cy="135.05"
           cx="114.92" />
        <circle
           id="circle168"
           opacity=".7"
           r="1.5961"
           cy="168.68"
           cx="122.81" />
      </g>
      <g
         style="font-style:italic;font-weight:bold;font-size:43.744px;line-height:1.25;font-family:'Bodoni* 11';letter-spacing:0px;word-spacing:0px;fill:#383838"
         id="text176"
         aria-label="ReplenishLandscaping">
        <path
           id="path1011"
           d="m 162.04666,138.56357 v 0.87488 h 15.74784 v -0.87488 h -4.61499 l 3.63075,-15.52912 h 2.29656 c 10.76102,0 -2.31843,16.73208 9.8424,16.73208 2.01222,0 3.45577,-0.2406 5.03056,-0.85301 l -0.26247,-0.83114 c -0.61241,0.26247 -1.11547,0.50306 -2.03409,0.50306 -4.74623,0 4.65873,-14.69799 -8.77067,-15.90095 7.74268,-0.45931 12.59827,-3.80572 12.59827,-9.49244 0,-4.81184 -4.33066,-6.5616 -10.06112,-6.5616 h -16.18528 v 0.87488 h 4.39627 l -7.2615,31.05824 z m 21.872,-31.05824 c 3.84947,0 4.48376,2.44966 4.48376,4.59312 0,3.89321 -2.25282,10.06112 -8.42072,10.06112 h -2.97459 l 3.4339,-14.65424 z" />
        <path
           id="path1013"
           d="m 202.15981,134.38601 c 0,-1.26857 0.13123,-2.60276 0.39369,-3.91508 5.09618,-0.10936 13.82311,-1.15922 13.82311,-7.08653 0,-3.14957 -3.32455,-4.50563 -7.56771,-4.50563 -6.38663,0 -13.38567,5.55548 -13.38567,13.77936 0,5.24928 3.84947,7.21776 8.0489,7.21776 4.85558,0 8.79254,-3.32455 10.71728,-6.69284 h -0.83114 c -1.88099,3.06208 -5.16179,5.35864 -8.13638,5.35864 -2.14346,0 -3.06208,-1.57478 -3.06208,-4.15568 z m 6.95529,-14.71985 c 1.22484,0 1.53104,1.44355 1.53104,3.06208 0,5.20553 -4.61499,6.69283 -7.91766,6.95529 1.18109,-5.27115 4.06819,-10.01737 6.38662,-10.01737 z" />
        <path
           id="path1015"
           d="m 213.29263,149.49957 v 0.87488 h 12.0296 v -0.87488 H 222.457 l 3.74011,-15.98844 c 0.13123,3.80573 1.99035,6.36476 5.20553,6.36476 4.33066,0 11.19847,-4.7681 11.19847,-13.5169 0,-5.68672 -3.93696,-7.45835 -6.9553,-7.45835 -3.52139,0 -6.10229,3.08395 -7.67707,6.62721 l 1.46542,-6.21164 h -9.27372 v 0.87488 h 2.93084 l -6.75844,29.30848 z m 13.60438,-16.404 c 0,-4.54938 3.01834,-12.0296 6.5616,-12.0296 1.57479,0 2.40592,1.61852 2.40592,3.9807 0,5.8617 -3.49952,12.51078 -6.51785,12.51078 -1.35607,0 -2.44967,-1.70601 -2.44967,-4.46188 z" />
        <path
           id="path1017"
           d="m 257.03657,132.30817 -0.87488,-0.26246 c -1.00611,2.8871 -3.39016,6.12416 -5.53362,6.12416 -0.56867,0 -0.78739,-0.34995 -0.78739,-0.83114 0,-0.21872 0.0437,-0.52492 0.0875,-0.78739 l 6.88968,-29.92089 H 246.6255 v 0.87488 h 3.89321 l -6.36475,27.77744 c -0.0437,0.26246 -0.0875,0.74364 -0.0875,0.96236 0,2.62464 1.37794,3.63076 4.09007,3.63076 4.19942,0 7.21776,-3.19332 8.88003,-7.56772 z" />
        <path
           id="path1019"
           d="m 266.61639,134.38601 c 0,-1.26857 0.13123,-2.60276 0.3937,-3.91508 5.09617,-0.10936 13.8231,-1.15922 13.8231,-7.08653 0,-3.14957 -3.32454,-4.50563 -7.56771,-4.50563 -6.38662,0 -13.38566,5.55548 -13.38566,13.77936 0,5.24928 3.84947,7.21776 8.04889,7.21776 4.85559,0 8.79255,-3.32455 10.71728,-6.69284 h -0.83113 c -1.881,3.06208 -5.1618,5.35864 -8.13639,5.35864 -2.14345,0 -3.06208,-1.57478 -3.06208,-4.15568 z m 6.9553,-14.71985 c 1.22483,0 1.53104,1.44355 1.53104,3.06208 0,5.20553 -4.61499,6.69283 -7.91767,6.95529 1.18109,-5.27115 4.0682,-10.01737 6.38663,-10.01737 z" />
        <path
           id="path1021"
           d="m 287.37289,120.19109 -4.59312,19.24736 h 6.12416 l 1.96848,-8.26762 c 1.74976,-6.32101 5.42426,-10.80477 7.28338,-10.80477 1.57478,0 1.59665,2.31843 0.45931,5.66485 l -2.97459,8.72693 c -0.13123,0.43744 -0.24059,0.91862 -0.24059,1.57478 0,2.31843 1.59665,3.54327 4.5275,3.54327 4.19942,0 6.78032,-3.19332 8.44259,-7.56772 l -0.87488,-0.26246 c -1.00611,2.8871 -3.23705,6.43037 -5.51174,6.43037 -0.56867,0 -0.83114,-0.34995 -0.83114,-0.83114 0,-0.21872 0.0438,-0.52493 0.13123,-0.78739 l 3.63076,-10.89226 c 1.35606,-4.09006 -0.48119,-7.08652 -4.94308,-7.08652 -3.54326,0 -6.0148,2.99646 -7.83017,7.02091 l 1.57478,-6.58347 h -9.18624 v 0.87488 z" />
        <path
           id="path1023"
           d="m 314.36287,109.91125 c 0,2.09971 1.61852,3.71824 3.71824,3.71824 2.09971,0 3.71824,-1.61853 3.71824,-3.71824 0,-2.09972 -1.61853,-3.71824 -3.71824,-3.71824 -2.09972,0 -3.71824,1.61852 -3.71824,3.71824 z m 8.66131,22.39692 -0.87488,-0.26246 c -1.00611,2.8871 -3.39016,6.12416 -5.53362,6.12416 -0.56867,0 -0.78739,-0.34995 -0.78739,-0.83114 0,-0.21872 0.0437,-0.52492 0.0875,-0.78739 l 4.17755,-17.23513 h -9.49245 v 0.87488 h 3.14957 l -3.60888,15.09168 c -0.0656,0.26246 -0.0875,0.74364 -0.0875,0.96236 0,2.62464 1.37794,3.63076 4.09007,3.63076 4.19942,0 7.21776,-3.19332 8.88003,-7.56772 z" />
        <path
           id="path1025"
           d="m 340.47798,121.13158 c -0.17497,-0.0437 -0.30621,-0.24059 -0.98424,-0.24059 -1.22483,0 -2.27469,1.0936 -2.27469,2.62464 0,1.74976 1.50917,2.66838 2.82149,2.66838 1.53104,0 2.734,-1.02798 2.734,-2.82148 0,-2.27469 -2.40592,-4.44002 -7.13027,-4.44002 -3.63075,0 -8.00515,2.31843 -8.00515,6.64909 0,6.38662 9.97363,6.64909 9.97363,10.23609 0,1.57479 -1.92474,3.2808 -4.98682,3.2808 -4.02444,0 -5.29302,-1.35606 -6.03667,-2.27468 0.17498,0.0437 0.3937,0.39369 1.31232,0.39369 1.4873,0 2.93085,-1.0936 2.93085,-2.84336 0,-1.96848 -1.66227,-2.8871 -2.97459,-2.8871 -1.53104,0 -3.10583,1.13734 -3.10583,3.14957 0,2.40592 2.23095,5.33676 7.87392,5.33676 4.89933,0 9.05501,-3.06208 9.05501,-7.17401 0,-5.81795 -9.8424,-6.34288 -9.8424,-10.27984 0,-1.57479 1.26858,-2.71213 4.02445,-2.71213 2.5809,0 4.00258,0.83114 4.61499,1.33419 z" />
        <path
           id="path1027"
           d="m 359.85648,126.03091 -2.97459,8.72693 c -0.10936,0.39369 -0.21872,0.91862 -0.21872,1.57478 0,2.31843 1.57478,3.54327 4.50563,3.54327 4.19942,0 6.78032,-3.19332 8.44259,-7.56772 l -0.87488,-0.26246 c -1.00611,2.8871 -3.23706,6.43037 -5.51174,6.43037 -0.56868,0 -0.83114,-0.34995 -0.83114,-0.83114 0,-0.21872 0.0437,-0.52493 0.13123,-0.78739 l 3.63075,-10.89226 c 1.35607,-4.09006 -0.48118,-7.08652 -4.94307,-7.08652 -3.54326,0 -5.99293,2.97459 -7.78643,6.97716 l 4.48376,-19.22548 h -9.18624 v 0.87488 h 2.84336 l -7.43648,31.93312 h 6.12416 l 1.94661,-8.33324 c 1.70601,-6.29913 5.33677,-10.73915 7.19589,-10.73915 1.57478,0 1.59665,2.31843 0.45931,5.66485 z" />
        <path
           id="path1029"
           d="m 186.65266,194.119 2.27469,-9.8424 h -0.87488 c -1.92474,5.55549 -4.59312,8.96752 -11.46093,8.96752 h -4.28691 l 7.21776,-31.05824 h 4.1338 V 161.311 h -14.65424 v 0.87488 h 3.74012 l -7.21776,31.05824 h -3.91509 v 0.87488 z" />
        <path
           id="path1031"
           d="m 217.55774,186.98873 -0.87488,-0.26246 c -1.00612,2.8871 -3.41204,6.12416 -5.55549,6.12416 -0.56867,0 -0.78739,-0.34995 -0.78739,-0.83114 0,-0.21872 0.0437,-0.52493 0.0875,-0.78739 l 4.41815,-17.23514 h -5.97106 l -1.42168,5.40239 c -0.24059,-3.47765 -1.90286,-5.81795 -4.94307,-5.81795 -4.54937,0 -11.41718,4.78996 -11.41718,13.53876 0,5.68672 3.93696,7.43648 6.95529,7.43648 3.32455,0 5.81796,-2.75587 7.39274,-6.03667 l -0.34995,1.66227 c -0.0437,0.26247 -0.0875,0.74365 -0.0875,0.96237 0,2.20907 0.96237,3.41203 3.67449,3.41203 4.19943,0 7.21776,-3.19331 8.88004,-7.56771 z m -10.76103,-6.60534 c 0,4.54937 -3.01833,12.0296 -6.5616,12.0296 -1.57478,0 -2.40592,-1.61853 -2.40592,-3.98071 0,-5.86169 3.49952,-12.51078 6.51786,-12.51078 1.35606,0 2.44966,1.70602 2.44966,4.46189 z" />
        <path
           id="path1033"
           d="m 224.31618,174.87164 -4.59312,19.24736 h 6.12416 l 1.96848,-8.26761 c 1.74976,-6.32101 5.42426,-10.80477 7.28338,-10.80477 1.57478,0 1.59665,2.31843 0.45931,5.66485 l -2.97459,8.72693 c -0.13124,0.43744 -0.2406,0.91862 -0.2406,1.57478 0,2.31843 1.59666,3.54326 4.52751,3.54326 4.19942,0 6.78032,-3.19331 8.44259,-7.56771 l -0.87488,-0.26246 c -1.00611,2.8871 -3.23706,6.43037 -5.51174,6.43037 -0.56868,0 -0.83114,-0.34996 -0.83114,-0.83114 0,-0.21872 0.0437,-0.52493 0.13123,-0.78739 l 3.63075,-10.89226 c 1.35607,-4.09006 -0.48118,-7.08653 -4.94307,-7.08653 -3.54326,0 -6.0148,2.99647 -7.83017,7.02092 l 1.57478,-6.58348 h -9.18624 v 0.87488 z" />
        <path
           id="path1035"
           d="m 275.16845,186.98873 -0.87488,-0.26246 c -1.00612,2.8871 -3.41204,6.12416 -5.55549,6.12416 -0.56867,0 -0.78739,-0.34995 -0.78739,-0.83114 0,-0.21872 0.0437,-0.52493 0.0875,-0.78739 l 6.69284,-29.9209 h -10.19236 v 0.87488 h 3.89322 l -3.91509,17.16952 c -0.28433,-3.45577 -2.12158,-5.79608 -5.16179,-5.79608 -4.33066,0 -11.19846,4.81184 -11.19846,13.56064 0,5.68672 3.93696,7.43648 6.95529,7.43648 3.36829,0 5.88357,-2.82148 7.48023,-6.1679 l -0.32808,1.57478 c -0.0437,0.26247 -0.0875,0.74365 -0.0875,0.96237 0,2.62464 1.39981,3.63075 4.11193,3.63075 4.19943,0 7.21776,-3.19331 8.88004,-7.56771 z m -11.30783,-6.60534 c 0,4.54937 -3.01833,12.0296 -6.5616,12.0296 -1.57478,0 -2.40592,-1.61853 -2.40592,-3.98071 0,-5.86169 3.49952,-12.51078 6.51786,-12.51078 1.35606,0 2.44966,1.70602 2.44966,4.46189 z" />
        <path
           id="path1037"
           d="m 291.8567,175.81214 c -0.17498,-0.0437 -0.30621,-0.24059 -0.98424,-0.24059 -1.22483,0 -2.27469,1.0936 -2.27469,2.62464 0,1.74976 1.50917,2.66838 2.82149,2.66838 1.53104,0 2.734,-1.02798 2.734,-2.82149 0,-2.27468 -2.40592,-4.44001 -7.13027,-4.44001 -3.63076,0 -8.00516,2.31843 -8.00516,6.64909 0,6.38662 9.97364,6.64908 9.97364,10.23609 0,1.57479 -1.92474,3.2808 -4.98682,3.2808 -4.02445,0 -5.29302,-1.35606 -6.03667,-2.27469 0.17497,0.0437 0.39369,0.3937 1.31232,0.3937 1.48729,0 2.93085,-1.0936 2.93085,-2.84336 0,-1.96848 -1.66228,-2.8871 -2.9746,-2.8871 -1.53104,0 -3.10582,1.13734 -3.10582,3.14956 0,2.40592 2.23094,5.33677 7.87392,5.33677 4.89933,0 9.05501,-3.06208 9.05501,-7.17401 0,-5.81796 -9.8424,-6.34288 -9.8424,-10.27984 0,-1.57479 1.26857,-2.71213 4.02445,-2.71213 2.58089,0 4.00257,0.83113 4.61499,1.33419 z" />
        <path
           id="path1039"
           d="m 315.3909,176.59953 c -0.17498,-0.0437 -0.7874,-0.32808 -1.70602,-0.32808 -1.4873,0 -3.36829,1.22483 -3.36829,3.41203 0,2.1872 1.83725,3.32455 3.58701,3.32455 1.96848,0 3.58701,-1.46543 3.58701,-3.91509 0,-3.36829 -3.01834,-5.53362 -7.04279,-5.53362 -6.60534,0 -13.25443,5.468 -13.25443,13.77936 0,5.468 3.84947,7.21776 7.39274,7.21776 4.41814,0 8.04889,-2.44966 10.49856,-6.69283 h -0.83114 c -2.40592,3.63075 -5.29302,5.20554 -7.48022,5.20554 -1.92474,0 -2.84336,-1.18109 -2.84336,-4.85559 0,-5.42425 2.62464,-13.69187 7.61145,-13.69187 1.92474,0 3.19332,1.02799 3.84948,2.07784 z" />
        <path
           id="path1041"
           d="m 347.01775,186.98873 -0.87488,-0.26246 c -1.00611,2.8871 -3.41203,6.12416 -5.55549,6.12416 -0.56867,0 -0.78739,-0.34995 -0.78739,-0.83114 0,-0.21872 0.0437,-0.52493 0.0875,-0.78739 l 4.41814,-17.23514 h -5.97105 l -1.42168,5.40239 c -0.2406,-3.47765 -1.90287,-5.81795 -4.94308,-5.81795 -4.54937,0 -11.41718,4.78996 -11.41718,13.53876 0,5.68672 3.93696,7.43648 6.9553,7.43648 3.32454,0 5.81795,-2.75587 7.39273,-6.03667 l -0.34995,1.66227 c -0.0437,0.26247 -0.0875,0.74365 -0.0875,0.96237 0,2.20907 0.96237,3.41203 3.6745,3.41203 4.19942,0 7.21776,-3.19331 8.88003,-7.56771 z m -10.76102,-6.60534 c 0,4.54937 -3.01834,12.0296 -6.5616,12.0296 -1.57479,0 -2.40592,-1.61853 -2.40592,-3.98071 0,-5.86169 3.49952,-12.51078 6.51785,-12.51078 1.35607,0 2.44967,1.70602 2.44967,4.46189 z" />
        <path
           id="path1043"
           d="m 344.1525,204.18012 v 0.87488 h 12.0296 v -0.87488 h -2.86523 l 3.74011,-15.98843 c 0.13123,3.80573 1.99035,6.36475 5.20554,6.36475 4.33065,0 11.19846,-4.76809 11.19846,-13.51689 0,-5.68672 -3.93696,-7.45835 -6.95529,-7.45835 -3.5214,0 -6.10229,3.08395 -7.67708,6.62721 l 1.46543,-6.21165 h -9.27373 v 0.87488 h 2.93085 l -6.75845,29.30848 z m 13.60439,-16.404 c 0,-4.54937 3.01833,-12.0296 6.5616,-12.0296 1.57478,0 2.40592,1.61853 2.40592,3.98071 0,5.86169 -3.49952,12.51078 -6.51786,12.51078 -1.35606,0 -2.44966,-1.70601 -2.44966,-4.46189 z" />
        <path
           id="path1045"
           d="m 381.46609,164.5918 c 0,2.09972 1.61853,3.71824 3.71824,3.71824 2.09971,0 3.71824,-1.61852 3.71824,-3.71824 0,-2.09971 -1.61853,-3.71824 -3.71824,-3.71824 -2.09971,0 -3.71824,1.61853 -3.71824,3.71824 z m 8.66131,22.39693 -0.87488,-0.26246 c -1.00611,2.8871 -3.39016,6.12416 -5.53361,6.12416 -0.56867,0 -0.78739,-0.34995 -0.78739,-0.83114 0,-0.21872 0.0437,-0.52493 0.0875,-0.78739 l 4.17756,-17.23514 h -9.49245 v 0.87488 h 3.14957 l -3.60888,15.09168 c -0.0656,0.26247 -0.0875,0.74365 -0.0875,0.96237 0,2.62464 1.37793,3.63075 4.09006,3.63075 4.19943,0 7.21776,-3.19331 8.88003,-7.56771 z" />
        <path
           id="path1047"
           d="m 395.3547,174.87164 -4.59312,19.24736 h 6.12416 l 1.96848,-8.26761 c 1.74976,-6.32101 5.42426,-10.80477 7.28338,-10.80477 1.57478,0 1.59666,2.31843 0.45931,5.66485 l -2.97459,8.72693 c -0.13123,0.43744 -0.24059,0.91862 -0.24059,1.57478 0,2.31843 1.59665,3.54326 4.5275,3.54326 4.19943,0 6.78032,-3.19331 8.44259,-7.56771 l -0.87488,-0.26246 c -1.00611,2.8871 -3.23705,6.43037 -5.51174,6.43037 -0.56867,0 -0.83114,-0.34996 -0.83114,-0.83114 0,-0.21872 0.0438,-0.52493 0.13124,-0.78739 l 3.63075,-10.89226 c 1.35606,-4.09006 -0.48119,-7.08653 -4.94307,-7.08653 -3.54327,0 -6.0148,2.99647 -7.83018,7.02092 l 1.57478,-6.58348 h -9.18624 v 0.87488 z" />
        <path
           id="path1049"
           d="m 427.26589,187.11996 c 5.51174,0 10.62979,-3.2808 10.62979,-8.09264 0,-0.89675 -0.17498,-1.66227 -0.48119,-2.29656 1.35607,-1.50916 2.734,-2.07784 4.02445,-2.07784 0.96237,0 1.88099,0.28434 2.31843,0.98424 -0.17497,-0.0875 -0.91862,-0.37182 -1.50916,-0.37182 -1.55292,0 -2.53716,1.15922 -2.53716,2.60277 0,1.88099 1.42168,2.734 2.734,2.734 1.31232,0 2.77775,-0.83114 2.77775,-3.23706 0,-1.81537 -1.20296,-3.58701 -3.78386,-3.58701 -1.31232,0 -2.97459,0.63429 -4.50563,2.16533 -1.29045,-1.68414 -3.76198,-2.38405 -6.60534,-2.38405 -5.51175,0 -10.6298,3.2808 -10.6298,8.09264 0,2.86524 1.79351,4.46189 4.39628,5.11805 -3.19332,0.65616 -5.83983,2.20907 -5.83983,4.98682 0,1.61853 1.13735,2.69025 2.90898,3.2808 -2.51528,0.45931 -6.38663,2.03409 -6.38663,5.42425 0,3.71824 5.18367,5.03056 10.34546,5.03056 5.90544,0 12.1827,-3.36828 12.1827,-9.53619 0,-3.76198 -1.99035,-5.55549 -5.92731,-5.55549 -1.22483,0 -3.10582,0.0438 -4.63686,0.0438 -2.40592,0 -4.30879,-0.10936 -4.30879,-1.07173 0,-1.22483 1.74976,-1.94661 3.36829,-2.31843 0.48119,0.0437 0.96237,0.0656 1.46543,0.0656 z m 0.10936,-0.87488 c -1.26858,0 -1.70602,-1.13734 -1.70602,-2.62464 0,-3.67449 1.96848,-9.18624 4.54938,-9.18624 1.26857,0 1.70601,1.13735 1.70601,2.62464 0,3.6745 -1.96848,9.18624 -4.54937,9.18624 z m -7.28338,13.86685 c 0,-2.05597 1.00611,-3.84947 2.23094,-4.78997 0.91863,0.19685 1.96848,0.28434 3.06208,0.28434 h 4.7681 c 2.40592,0 3.80573,0.83114 3.80573,3.19331 0,4.02445 -4.48376,5.75234 -8.37698,5.75234 -3.76198,0 -5.48987,-1.46543 -5.48987,-4.44002 z" />
      </g>
    </g>
  </g>
</svg>
